<svg width="600" height="112" viewBox="0 0 600 112" fill="none" xmlns="http://www.w3.org/2000/svg">
<path d="M0 8C0 3.5817 3.5817 0 8 0H592C596.418 0 600 3.5817 600 8V40H0V8Z" fill="#424242"/>
<path d="M24.9033 15.0469V25H23.1875L18.7236 17.8701V25H17.0078V15.0469H18.7236L23.2012 22.1904V15.0469H24.9033ZM29.904 25.1367C29.3571 25.1367 28.8626 25.0479 28.4206 24.8701C27.9831 24.6878 27.6094 24.4349 27.2995 24.1113C26.9941 23.7878 26.7594 23.4072 26.5954 22.9697C26.4313 22.5322 26.3493 22.0605 26.3493 21.5547V21.2812C26.3493 20.7025 26.4336 20.1784 26.6022 19.709C26.7708 19.2396 27.0055 18.8385 27.3063 18.5059C27.6071 18.1686 27.9625 17.9111 28.3727 17.7334C28.7829 17.5557 29.2272 17.4668 29.7057 17.4668C30.2344 17.4668 30.6969 17.5557 31.0934 17.7334C31.4899 17.9111 31.818 18.1618 32.0778 18.4854C32.3421 18.8044 32.5381 19.1849 32.6657 19.627C32.7978 20.069 32.8639 20.5566 32.8639 21.0898V21.7939H27.1491V20.6113H31.237V20.4814C31.2278 20.1852 31.1686 19.9072 31.0592 19.6475C30.9544 19.3877 30.7926 19.1781 30.5739 19.0186C30.3551 18.859 30.0635 18.7793 29.6989 18.7793C29.4254 18.7793 29.1816 18.8385 28.9674 18.957C28.7578 19.071 28.5823 19.2373 28.4411 19.4561C28.2998 19.6748 28.1904 19.9391 28.1129 20.249C28.04 20.5544 28.0036 20.8984 28.0036 21.2812V21.5547C28.0036 21.8783 28.0469 22.179 28.1334 22.457C28.2246 22.7305 28.3568 22.9697 28.5299 23.1748C28.7031 23.3799 28.9127 23.5417 29.1588 23.6602C29.4049 23.7741 29.6852 23.8311 29.9997 23.8311C30.3961 23.8311 30.7493 23.7513 31.0592 23.5918C31.3691 23.4323 31.638 23.2067 31.8659 22.915L32.734 23.7559C32.5745 23.9883 32.3672 24.2116 32.112 24.4258C31.8568 24.6354 31.5446 24.8063 31.1754 24.9385C30.8109 25.0706 30.387 25.1367 29.904 25.1367ZM36.0188 23.3594L37.7278 17.6035H38.7806L38.4934 19.3262L36.7708 25H35.8274L36.0188 23.3594ZM35.014 17.6035L36.347 23.3867L36.4563 25H35.4036L33.4007 17.6035H35.014ZM40.3802 23.3184L41.6722 17.6035H43.2786L41.2825 25H40.2298L40.3802 23.3184ZM38.9583 17.6035L40.6468 23.291L40.8587 25H39.9153L38.1722 19.3193L37.885 17.6035H38.9583ZM48.4674 15.0469H49.9986L52.8765 22.7236L55.7476 15.0469H57.2789L53.4781 25H52.2613L48.4674 15.0469ZM47.7701 15.0469H49.2261L49.4791 21.6914V25H47.7701V15.0469ZM56.5201 15.0469H57.983V25H56.2672V21.6914L56.5201 15.0469ZM62.9768 25.1367C62.4299 25.1367 61.9354 25.0479 61.4934 24.8701C61.0559 24.6878 60.6822 24.4349 60.3723 24.1113C60.0669 23.7878 59.8322 23.4072 59.6682 22.9697C59.5041 22.5322 59.4221 22.0605 59.4221 21.5547V21.2812C59.4221 20.7025 59.5064 20.1784 59.675 19.709C59.8436 19.2396 60.0783 18.8385 60.3791 18.5059C60.6799 18.1686 61.0354 17.9111 61.4455 17.7334C61.8557 17.5557 62.3 17.4668 62.7785 17.4668C63.3072 17.4668 63.7697 17.5557 64.1662 17.7334C64.5627 17.9111 64.8908 18.1618 65.1506 18.4854C65.4149 18.8044 65.6109 19.1849 65.7385 19.627C65.8706 20.069 65.9367 20.5566 65.9367 21.0898V21.7939H60.2219V20.6113H64.3098V20.4814C64.3007 20.1852 64.2414 19.9072 64.132 19.6475C64.0272 19.3877 63.8654 19.1781 63.6467 19.0186C63.4279 18.859 63.1363 18.7793 62.7717 18.7793C62.4982 18.7793 62.2544 18.8385 62.0402 18.957C61.8306 19.071 61.6551 19.2373 61.5139 19.4561C61.3726 19.6748 61.2632 19.9391 61.1857 20.249C61.1128 20.5544 61.0764 20.8984 61.0764 21.2812V21.5547C61.0764 21.8783 61.1197 22.179 61.2063 22.457C61.2974 22.7305 61.4296 22.9697 61.6027 23.1748C61.7759 23.3799 61.9856 23.5417 62.2316 23.6602C62.4777 23.7741 62.758 23.8311 63.0725 23.8311C63.469 23.8311 63.8221 23.7513 64.132 23.5918C64.4419 23.4323 64.7108 23.2067 64.9387 22.915L65.8068 23.7559C65.6473 23.9883 65.44 24.2116 65.1848 24.4258C64.9296 24.6354 64.6174 24.8063 64.2482 24.9385C63.8837 25.0706 63.4598 25.1367 62.9768 25.1367ZM71.2313 22.9971C71.2313 22.833 71.1903 22.6849 71.1082 22.5527C71.0262 22.416 70.869 22.293 70.6366 22.1836C70.4087 22.0742 70.0715 21.974 69.6248 21.8828C69.2329 21.7962 68.8729 21.6937 68.5448 21.5752C68.2212 21.4521 67.9432 21.304 67.7108 21.1309C67.4784 20.9577 67.2984 20.7526 67.1707 20.5156C67.0431 20.2786 66.9793 20.0052 66.9793 19.6953C66.9793 19.3945 67.0454 19.1097 67.1776 18.8408C67.3097 18.5719 67.4989 18.335 67.745 18.1299C67.9911 17.9248 68.2896 17.763 68.6405 17.6445C68.9959 17.526 69.3924 17.4668 69.8299 17.4668C70.4497 17.4668 70.9806 17.5716 71.4227 17.7812C71.8693 17.9863 72.2111 18.2666 72.4481 18.6221C72.6851 18.973 72.8036 19.3695 72.8036 19.8115H71.1561C71.1561 19.6156 71.106 19.4333 71.0057 19.2646C70.91 19.0915 70.7642 18.9525 70.5682 18.8477C70.3722 18.7383 70.1262 18.6836 69.8299 18.6836C69.5474 18.6836 69.3127 18.7292 69.1258 18.8203C68.9435 18.9069 68.8068 19.0208 68.7157 19.1621C68.6291 19.3034 68.5858 19.4583 68.5858 19.627C68.5858 19.75 68.6086 19.8617 68.6541 19.9619C68.7043 20.0576 68.7863 20.1465 68.9002 20.2285C69.0142 20.306 69.1691 20.3789 69.3651 20.4473C69.5656 20.5156 69.8163 20.5817 70.117 20.6455C70.6821 20.764 71.1675 20.9167 71.5731 21.1035C71.9832 21.2858 72.2977 21.5228 72.5165 21.8145C72.7352 22.1016 72.8446 22.4661 72.8446 22.9082C72.8446 23.2363 72.7739 23.5371 72.6327 23.8105C72.4959 24.0794 72.2954 24.3141 72.0311 24.5146C71.7668 24.7106 71.45 24.8633 71.0809 24.9727C70.7163 25.082 70.3062 25.1367 69.8504 25.1367C69.1805 25.1367 68.6131 25.0182 68.1483 24.7812C67.6834 24.5397 67.3303 24.2321 67.0887 23.8584C66.8517 23.4801 66.7332 23.0882 66.7332 22.6826H68.326C68.3443 22.988 68.4286 23.2318 68.579 23.4141C68.7339 23.5918 68.9253 23.7217 69.1532 23.8037C69.3856 23.8812 69.6248 23.9199 69.8709 23.9199C70.1672 23.9199 70.4155 23.8812 70.6161 23.8037C70.8166 23.7217 70.9693 23.6123 71.0741 23.4756C71.1789 23.3343 71.2313 23.1748 71.2313 22.9971ZM78.2964 22.9971C78.2964 22.833 78.2554 22.6849 78.1733 22.5527C78.0913 22.416 77.9341 22.293 77.7016 22.1836C77.4738 22.0742 77.1365 21.974 76.6899 21.8828C76.298 21.7962 75.938 21.6937 75.6099 21.5752C75.2863 21.4521 75.0083 21.304 74.7759 21.1309C74.5434 20.9577 74.3634 20.7526 74.2358 20.5156C74.1082 20.2786 74.0444 20.0052 74.0444 19.6953C74.0444 19.3945 74.1105 19.1097 74.2427 18.8408C74.3748 18.5719 74.564 18.335 74.81 18.1299C75.0561 17.9248 75.3546 17.763 75.7056 17.6445C76.061 17.526 76.4575 17.4668 76.895 17.4668C77.5148 17.4668 78.0457 17.5716 78.4878 17.7812C78.9344 17.9863 79.2762 18.2666 79.5132 18.6221C79.7501 18.973 79.8686 19.3695 79.8686 19.8115H78.2212C78.2212 19.6156 78.171 19.4333 78.0708 19.2646C77.9751 19.0915 77.8293 18.9525 77.6333 18.8477C77.4373 18.7383 77.1912 18.6836 76.895 18.6836C76.6125 18.6836 76.3778 18.7292 76.1909 18.8203C76.0086 18.9069 75.8719 19.0208 75.7807 19.1621C75.6942 19.3034 75.6509 19.4583 75.6509 19.627C75.6509 19.75 75.6737 19.8617 75.7192 19.9619C75.7694 20.0576 75.8514 20.1465 75.9653 20.2285C76.0793 20.306 76.2342 20.3789 76.4302 20.4473C76.6307 20.5156 76.8813 20.5817 77.1821 20.6455C77.7472 20.764 78.2326 20.9167 78.6382 21.1035C79.0483 21.2858 79.3628 21.5228 79.5815 21.8145C79.8003 22.1016 79.9097 22.4661 79.9097 22.9082C79.9097 23.2363 79.839 23.5371 79.6977 23.8105C79.561 24.0794 79.3605 24.3141 79.0962 24.5146C78.8319 24.7106 78.5151 24.8633 78.146 24.9727C77.7814 25.082 77.3712 25.1367 76.9155 25.1367C76.2456 25.1367 75.6782 25.0182 75.2134 24.7812C74.7485 24.5397 74.3953 24.2321 74.1538 23.8584C73.9168 23.4801 73.7983 23.0882 73.7983 22.6826H75.3911C75.4093 22.988 75.4936 23.2318 75.644 23.4141C75.799 23.5918 75.9904 23.7217 76.2182 23.8037C76.4507 23.8812 76.6899 23.9199 76.936 23.9199C77.2322 23.9199 77.4806 23.8812 77.6811 23.8037C77.8817 23.7217 78.0343 23.6123 78.1391 23.4756C78.244 23.3343 78.2964 23.1748 78.2964 22.9971ZM85.3821 23.5166V19.9893C85.3821 19.7249 85.3341 19.4971 85.2381 19.3057C85.1431 19.1143 84.9971 18.9661 84.8011 18.8613C84.6091 18.7565 84.3681 18.7041 84.0761 18.7041C83.8074 18.7041 83.575 18.7497 83.379 18.8408C83.1831 18.932 83.0304 19.055 82.921 19.21C82.8116 19.3649 82.757 19.5404 82.757 19.7363H81.1163C81.1163 19.4447 81.187 19.1621 81.3282 18.8887C81.4695 18.6152 81.6746 18.3714 81.9435 18.1572C82.2124 17.943 82.5336 17.7744 82.9073 17.6514C83.281 17.5283 83.7003 17.4668 84.1651 17.4668C84.7211 17.4668 85.2131 17.5602 85.6421 17.7471C86.0751 17.9339 86.4141 18.2165 86.6601 18.5947C86.9111 18.9684 87.0361 19.4378 87.0361 20.0029V23.291C87.0361 23.6283 87.0591 23.9313 87.1051 24.2002C87.1551 24.4645 87.2251 24.6947 87.3161 24.8906V25H85.6281C85.5501 24.8223 85.4891 24.5967 85.4431 24.3232C85.4021 24.0452 85.3821 23.7764 85.3821 23.5166ZM85.6211 20.502L85.6351 21.5205H84.4521C84.1471 21.5205 83.8781 21.5501 83.6456 21.6094C83.4132 21.6641 83.2195 21.7461 83.0646 21.8555C82.9096 21.9648 82.7934 22.097 82.7159 22.252C82.6385 22.4069 82.5997 22.5824 82.5997 22.7783C82.5997 22.9743 82.6453 23.1543 82.7364 23.3184C82.8276 23.4779 82.9598 23.6032 83.1329 23.6943C83.3107 23.7855 83.5249 23.8311 83.7755 23.8311C84.1131 23.8311 84.4071 23.7627 84.6571 23.626C84.9121 23.4847 85.1131 23.3138 85.2591 23.1133C85.4051 22.9082 85.4821 22.7145 85.4911 22.5322L86.0241 23.2637C85.9701 23.4505 85.8761 23.651 85.7441 23.8652C85.6121 24.0794 85.4391 24.2845 85.2251 24.4805C85.0151 24.6719 84.7621 24.8291 84.4661 24.9521C84.1741 25.0752 83.837 25.1367 83.4542 25.1367C82.9711 25.1367 82.5405 25.041 82.1622 24.8496C81.784 24.6536 81.4878 24.3916 81.2736 24.0635C81.0594 23.7308 80.9523 23.3548 80.9523 22.9355C80.9523 22.5436 81.0252 22.1973 81.171 21.8965C81.3214 21.5911 81.5402 21.3359 81.8273 21.1309C82.1189 20.9258 82.4744 20.7708 82.8937 20.666C83.3129 20.5566 83.7915 20.502 84.3291 20.502H85.6211ZM93.3561 17.6035H94.8531V24.7949C94.8531 25.4603 94.7121 26.0254 94.4291 26.4902C94.1471 26.9551 93.7531 27.3083 93.2471 27.5498C92.7411 27.7959 92.1551 27.9189 91.4901 27.9189C91.2071 27.9189 90.8931 27.8779 90.5471 27.7959C90.2051 27.7139 89.8721 27.5817 89.5481 27.3994C89.2291 27.2217 88.9631 26.987 88.7491 26.6953L89.5211 25.7246C89.7851 26.0391 90.0771 26.2692 90.3961 26.415C90.7151 26.5609 91.0501 26.6338 91.4011 26.6338C91.7791 26.6338 92.1011 26.5632 92.3651 26.4219C92.6341 26.2852 92.8411 26.0824 92.9871 25.8135C93.1331 25.5446 93.2061 25.2165 93.2061 24.8291V19.2783L93.3561 17.6035ZM88.3321 21.3838V21.2402C88.3321 20.6797 88.4001 20.1693 88.5371 19.709C88.6731 19.2441 88.8691 18.8454 89.1251 18.5127C89.3801 18.1755 89.6901 17.918 90.0541 17.7402C90.4191 17.5579 90.8311 17.4668 91.2921 17.4668C91.7701 17.4668 92.1781 17.5534 92.5151 17.7266C92.8571 17.8997 93.1421 18.1481 93.3701 18.4717C93.5981 18.7907 93.7751 19.1735 93.9031 19.6201C94.0351 20.0622 94.1331 20.5544 94.1971 21.0967V21.5547C94.1381 22.0833 94.0371 22.5664 93.8961 23.0039C93.7551 23.4414 93.5681 23.8197 93.3361 24.1387C93.1031 24.4577 92.8161 24.7038 92.4741 24.877C92.1371 25.0501 91.7381 25.1367 91.2781 25.1367C90.8271 25.1367 90.4191 25.0433 90.0541 24.8564C89.6941 24.6696 89.3841 24.4076 89.1251 24.0703C88.8691 23.7331 88.6731 23.3366 88.5371 22.8809C88.4001 22.4206 88.3321 21.9215 88.3321 21.3838ZM89.9791 21.2402V21.3838C89.9791 21.721 90.0111 22.0355 90.0751 22.3271C90.1431 22.6188 90.2461 22.8763 90.3821 23.0996C90.5241 23.3184 90.7011 23.4915 90.9161 23.6191C91.1341 23.7422 91.3921 23.8037 91.6881 23.8037C92.0761 23.8037 92.3921 23.7217 92.6381 23.5576C92.8891 23.3936 93.0801 23.1725 93.2131 22.8945C93.3491 22.612 93.4451 22.2975 93.5001 21.9512V20.7139C93.4721 20.445 93.4151 20.1943 93.3291 19.9619C93.2471 19.7295 93.1351 19.5267 92.9941 19.3535C92.8531 19.1758 92.6751 19.0391 92.4611 18.9434C92.2461 18.8431 91.9931 18.793 91.7021 18.793C91.4061 18.793 91.1481 18.8568 90.9291 18.9844C90.7111 19.112 90.5311 19.2874 90.3891 19.5107C90.2531 19.734 90.1501 19.9938 90.0821 20.29C90.0131 20.5863 89.9791 20.903 89.9791 21.2402ZM99.6831 25.1367C99.1361 25.1367 98.6421 25.0479 98.2001 24.8701C97.7621 24.6878 97.3881 24.4349 97.0781 24.1113C96.7731 23.7878 96.5381 23.4072 96.3741 22.9697C96.2101 22.5322 96.1281 22.0605 96.1281 21.5547V21.2812C96.1281 20.7025 96.2131 20.1784 96.3811 19.709C96.5501 19.2396 96.7841 18.8385 97.0851 18.5059C97.3861 18.1686 97.7421 17.9111 98.1521 17.7334C98.5621 17.5557 99.0061 17.4668 99.4851 17.4668C100.013 17.4668 100.476 17.5557 100.872 17.7334C101.269 17.9111 101.597 18.1618 101.857 18.4854C102.121 18.8044 102.317 19.1849 102.445 19.627C102.577 20.069 102.643 20.5566 102.643 21.0898V21.7939H96.9281V20.6113H101.016V20.4814C101.007 20.1852 100.948 19.9072 100.838 19.6475C100.733 19.3877 100.572 19.1781 100.353 19.0186C100.134 18.859 99.8421 18.7793 99.4781 18.7793C99.2041 18.7793 98.9611 18.8385 98.7461 18.957C98.5371 19.071 98.3611 19.2373 98.2201 19.4561C98.0791 19.6748 97.9691 19.9391 97.8921 20.249C97.8191 20.5544 97.7831 20.8984 97.7831 21.2812V21.5547C97.7831 21.8783 97.8261 22.179 97.9121 22.457C98.0041 22.7305 98.1361 22.9697 98.3091 23.1748C98.4821 23.3799 98.6921 23.5417 98.9381 23.6602C99.1841 23.7741 99.4641 23.8311 99.7791 23.8311C100.175 23.8311 100.528 23.7513 100.838 23.5918C101.148 23.4323 101.417 23.2067 101.645 22.915L102.513 23.7559C102.353 23.9883 102.146 24.2116 101.891 24.4258C101.636 24.6354 101.324 24.8063 100.954 24.9385C100.59 25.0706 100.166 25.1367 99.6831 25.1367Z" fill="white"/>
<path d="M526.75 23.2085H536.75V25.2085H526.75V23.2085Z" fill="white" fill-opacity="0.6"/>
<path d="M561 19.4444V15H556.556L558.383 16.8278L552.828 22.3833L551 20.5556V25H555.444L553.617 23.1722L559.172 17.6167L561 19.4444Z" fill="white" fill-opacity="0.6"/>
<mask id="mask0_2534_2449" style="mask-type:luminance" maskUnits="userSpaceOnUse" x="575" y="15" width="10" height="10">
<path d="M575 25H585V15H575V25Z" fill="white"/>
</mask>
<g mask="url(#mask0_2534_2449)">
<path d="M576.667 15L575 16.6667L578.333 20L575 23.3333L576.667 25L580 21.6667L583.333 25L585 23.3333L581.667 20L585 16.6667L583.333 15L580 18.3333L576.667 15Z" fill="white" fill-opacity="0.6"/>
</g>
<path d="M600 40H0V112H600V40Z" fill="white"/>
<path d="M22.461 96.484C22.461 96.252 22.4245 96.047 22.3516 95.869C22.2832 95.687 22.1602 95.523 21.9824 95.377C21.8093 95.231 21.5677 95.092 21.2578 94.96C20.9525 94.828 20.5651 94.693 20.0957 94.557C19.6035 94.411 19.1592 94.249 18.7627 94.071C18.3662 93.889 18.0267 93.682 17.7442 93.449C17.4616 93.217 17.2451 92.95 17.0948 92.649C16.9444 92.349 16.8692 92.005 16.8692 91.617C16.8692 91.23 16.9489 90.872 17.1084 90.544C17.2679 90.216 17.4958 89.931 17.792 89.689C18.0928 89.443 18.4505 89.252 18.8653 89.115C19.28 88.979 19.7425 88.91 20.253 88.91C21.0003 88.91 21.6338 89.054 22.1533 89.341C22.6774 89.623 23.0762 89.995 23.3496 90.455C23.6231 90.911 23.7598 91.398 23.7598 91.918H22.4473C22.4473 91.544 22.3675 91.214 22.208 90.927C22.0485 90.635 21.807 90.407 21.4834 90.243C21.1599 90.075 20.7497 89.99 20.253 89.99C19.7836 89.99 19.3962 90.061 19.0908 90.202C18.7855 90.343 18.5576 90.535 18.4072 90.776C18.2614 91.018 18.1885 91.294 18.1885 91.604C18.1885 91.813 18.2318 92.005 18.3184 92.178C18.4095 92.346 18.5485 92.504 18.7354 92.649C18.9268 92.795 19.1683 92.93 19.46 93.053C19.7562 93.176 20.1094 93.294 20.5196 93.408C21.0847 93.568 21.5723 93.745 21.9824 93.941C22.3926 94.137 22.7298 94.358 22.9942 94.604C23.263 94.846 23.4613 95.122 23.5889 95.432C23.7211 95.737 23.7871 96.083 23.7871 96.471C23.7871 96.876 23.7051 97.243 23.541 97.571C23.377 97.899 23.1423 98.18 22.8369 98.412C22.5316 98.645 22.1647 98.825 21.7364 98.952C21.3125 99.075 20.8386 99.137 20.3145 99.137C19.8542 99.137 19.4007 99.073 18.9541 98.945C18.5121 98.818 18.1087 98.626 17.7442 98.371C17.3841 98.116 17.0948 97.801 16.876 97.428C16.6618 97.049 16.5547 96.612 16.5547 96.115H17.8672C17.8672 96.457 17.9333 96.751 18.0655 96.997C18.1976 97.239 18.3776 97.439 18.6055 97.599C18.8379 97.758 19.1 97.877 19.3916 97.954C19.6878 98.027 19.9955 98.063 20.3145 98.063C20.7748 98.063 21.1644 98 21.4834 97.872C21.8024 97.744 22.044 97.562 22.208 97.325C22.3767 97.088 22.461 96.808 22.461 96.484ZM29.8028 97.291V91.604H31.0742V99H29.8643L29.8028 97.291ZM30.042 95.732L30.5684 95.719C30.5684 96.211 30.516 96.667 30.4112 97.086C30.3109 97.501 30.1468 97.861 29.919 98.166C29.6911 98.471 29.3926 98.711 29.0235 98.884C28.6543 99.052 28.2054 99.137 27.6768 99.137C27.3168 99.137 26.9864 99.084 26.6856 98.979C26.3893 98.875 26.1341 98.713 25.9199 98.494C25.7058 98.275 25.5394 97.991 25.4209 97.64C25.307 97.289 25.25 96.867 25.25 96.375V91.604H26.5147V96.389C26.5147 96.721 26.5511 96.997 26.624 97.216C26.7015 97.43 26.8041 97.601 26.9317 97.729C27.0638 97.852 27.2097 97.938 27.3692 97.988C27.5332 98.038 27.7018 98.063 27.875 98.063C28.4128 98.063 28.8389 97.961 29.1533 97.756C29.4678 97.546 29.6934 97.266 29.8301 96.915C29.9714 96.56 30.042 96.165 30.042 95.732ZM32.9951 88.5H34.2666V97.564L34.1572 99H32.9951V88.5ZM39.2637 95.24V95.384C39.2637 95.922 39.1999 96.421 39.0723 96.881C38.9447 97.337 38.7578 97.733 38.5117 98.07C38.2656 98.408 37.9649 98.67 37.6094 98.856C37.2539 99.043 36.8461 99.137 36.3858 99.137C35.9164 99.137 35.5039 99.057 35.1485 98.897C34.7975 98.733 34.5013 98.499 34.2598 98.193C34.0183 97.888 33.8246 97.519 33.6787 97.086C33.5375 96.653 33.4395 96.165 33.3848 95.623V94.994C33.4395 94.447 33.5375 93.957 33.6787 93.524C33.8246 93.091 34.0183 92.722 34.2598 92.417C34.5013 92.107 34.7975 91.872 35.1485 91.713C35.4994 91.549 35.9072 91.467 36.3721 91.467C36.8369 91.467 37.2494 91.558 37.6094 91.74C37.9694 91.918 38.2702 92.173 38.5117 92.506C38.7578 92.839 38.9447 93.237 39.0723 93.702C39.1999 94.162 39.2637 94.675 39.2637 95.24ZM37.9922 95.384V95.24C37.9922 94.871 37.958 94.525 37.8897 94.201C37.8213 93.873 37.7119 93.586 37.5615 93.34C37.4112 93.089 37.2129 92.893 36.9668 92.752C36.7207 92.606 36.4177 92.533 36.0576 92.533C35.7386 92.533 35.4606 92.588 35.2237 92.697C34.9912 92.807 34.793 92.955 34.6289 93.142C34.4649 93.324 34.3304 93.534 34.2256 93.771C34.1253 94.003 34.0502 94.244 34 94.495V96.143C34.0729 96.462 34.1914 96.769 34.3555 97.065C34.5241 97.357 34.7474 97.596 35.0254 97.783C35.308 97.97 35.6566 98.063 36.0713 98.063C36.4131 98.063 36.7048 97.995 36.9463 97.858C37.1924 97.717 37.3906 97.523 37.541 97.277C37.696 97.031 37.8099 96.746 37.8828 96.423C37.9558 96.099 37.9922 95.753 37.9922 95.384ZM40.8975 91.604H42.169V99.882C42.169 100.333 42.0961 100.716 41.9502 101.03C41.8089 101.345 41.5948 101.582 41.3076 101.741C41.0251 101.905 40.6673 101.987 40.2344 101.987C40.1205 101.987 39.9883 101.976 39.8379 101.953C39.683 101.93 39.5531 101.903 39.4483 101.871L39.4551 100.853C39.5417 100.871 39.6397 100.884 39.749 100.894C39.8584 100.907 39.9541 100.914 40.0362 100.914C40.223 100.914 40.3802 100.88 40.5078 100.812C40.6354 100.743 40.7311 100.634 40.7949 100.483C40.8633 100.333 40.8975 100.132 40.8975 99.882V91.604ZM40.7676 89.642C40.7676 89.437 40.8314 89.263 40.959 89.122C41.0866 88.981 41.2712 88.91 41.5127 88.91C41.7588 88.91 41.9457 88.981 42.0733 89.122C42.2009 89.263 42.2647 89.437 42.2647 89.642C42.2647 89.838 42.2009 90.006 42.0733 90.147C41.9457 90.284 41.7588 90.353 41.5127 90.353C41.2712 90.353 41.0866 90.284 40.959 90.147C40.8314 90.006 40.7676 89.838 40.7676 89.642ZM47.2822 99.137C46.7673 99.137 46.3002 99.05 45.8809 98.877C45.4662 98.699 45.1084 98.451 44.8076 98.132C44.5114 97.813 44.2836 97.435 44.124 96.997C43.9645 96.56 43.8848 96.081 43.8848 95.562V95.274C43.8848 94.673 43.9737 94.137 44.1514 93.668C44.3291 93.194 44.5707 92.793 44.876 92.465C45.1813 92.137 45.5277 91.888 45.9151 91.72C46.3024 91.551 46.7035 91.467 47.1182 91.467C47.6468 91.467 48.1026 91.558 48.4854 91.74C48.8727 91.923 49.1895 92.178 49.4356 92.506C49.6817 92.829 49.864 93.212 49.9824 93.654C50.1009 94.092 50.1602 94.57 50.1602 95.09V95.657H44.6367V94.625H48.8955V94.529C48.8773 94.201 48.8089 93.882 48.6905 93.572C48.5765 93.262 48.3942 93.007 48.1436 92.807C47.8929 92.606 47.5511 92.506 47.1182 92.506C46.8311 92.506 46.5668 92.567 46.3252 92.69C46.0837 92.809 45.8763 92.987 45.7031 93.224C45.53 93.461 45.3955 93.75 45.2998 94.092C45.2041 94.434 45.1563 94.828 45.1563 95.274V95.562C45.1563 95.912 45.2041 96.243 45.2998 96.553C45.4001 96.858 45.5436 97.127 45.7305 97.359C45.9219 97.592 46.152 97.774 46.4209 97.906C46.6944 98.038 47.0043 98.104 47.3506 98.104C47.7972 98.104 48.1755 98.013 48.4854 97.831C48.7953 97.649 49.0664 97.405 49.2989 97.1L50.0645 97.708C49.905 97.95 49.7022 98.18 49.4561 98.398C49.21 98.617 48.9069 98.795 48.5469 98.932C48.1914 99.068 47.7699 99.137 47.2822 99.137ZM54.5967 98.098C54.8975 98.098 55.1755 98.036 55.4307 97.913C55.6859 97.79 55.8955 97.621 56.0596 97.407C56.2237 97.188 56.3171 96.94 56.3399 96.662H57.543C57.5202 97.1 57.3721 97.507 57.0987 97.886C56.8298 98.259 56.4766 98.562 56.0391 98.795C55.6016 99.023 55.1208 99.137 54.5967 99.137C54.0407 99.137 53.5554 99.039 53.1406 98.843C52.7305 98.647 52.3887 98.378 52.1153 98.036C51.8464 97.694 51.6436 97.302 51.5069 96.86C51.3747 96.414 51.3086 95.942 51.3086 95.445V95.158C51.3086 94.661 51.3747 94.192 51.5069 93.75C51.6436 93.303 51.8464 92.909 52.1153 92.567C52.3887 92.226 52.7305 91.957 53.1406 91.761C53.5554 91.565 54.0407 91.467 54.5967 91.467C55.1755 91.467 55.6813 91.585 56.1143 91.822C56.5472 92.055 56.8867 92.374 57.1328 92.779C57.3835 93.18 57.5202 93.636 57.543 94.146H56.3399C56.3171 93.841 56.2305 93.565 56.0801 93.319C55.9343 93.073 55.7337 92.877 55.4785 92.731C55.2279 92.581 54.9339 92.506 54.5967 92.506C54.2093 92.506 53.8835 92.583 53.6192 92.738C53.3594 92.889 53.152 93.094 52.9971 93.354C52.8467 93.609 52.7373 93.894 52.669 94.208C52.6052 94.518 52.5733 94.835 52.5733 95.158V95.445C52.5733 95.769 52.6052 96.088 52.669 96.402C52.7328 96.717 52.8399 97.002 52.9903 97.257C53.1452 97.512 53.3526 97.717 53.6123 97.872C53.8767 98.022 54.2048 98.098 54.5967 98.098ZM62.0615 91.604V92.574H58.0625V91.604H62.0615ZM59.416 89.806H60.6807V97.168C60.6807 97.419 60.7194 97.608 60.7969 97.735C60.8744 97.863 60.9746 97.947 61.0977 97.988C61.2207 98.029 61.3529 98.05 61.4942 98.05C61.599 98.05 61.7084 98.041 61.8223 98.022C61.9408 98 62.0296 97.981 62.0889 97.968L62.0957 99C61.9955 99.032 61.8633 99.062 61.6992 99.089C61.5397 99.121 61.3461 99.137 61.1182 99.137C60.8083 99.137 60.5235 99.075 60.2637 98.952C60.0039 98.829 59.7966 98.624 59.6416 98.337C59.4912 98.045 59.416 97.653 59.416 97.161V89.806Z" fill="black" fill-opacity="0.54"/>
<path d="M17.1562 53.0469H20.4511C21.1985 53.0469 21.8297 53.1608 22.3447 53.3887C22.8642 53.6165 23.2585 53.9538 23.5274 54.4004C23.8008 54.8424 23.9375 55.387 23.9375 56.0342C23.9375 56.4899 23.8441 56.9069 23.6572 57.2852C23.475 57.6589 23.2106 57.9779 22.8643 58.2422C22.5225 58.502 22.1123 58.6956 21.6338 58.8232L21.2646 58.9668H18.1679L18.1543 57.8936H20.4921C20.9661 57.8936 21.3604 57.8115 21.6748 57.6475C21.9893 57.4788 22.2262 57.2533 22.3857 56.9707C22.5452 56.6882 22.625 56.376 22.625 56.0342C22.625 55.6514 22.5497 55.3164 22.3993 55.0293C22.2489 54.7422 22.012 54.5212 21.6884 54.3662C21.3694 54.2067 20.957 54.127 20.4511 54.127H18.4756V63H17.1562V53.0469ZM22.9736 63L20.5536 58.4883L21.9277 58.4814L24.3819 62.918V63H22.9736ZM28.6611 63.1367C28.1461 63.1367 27.6791 63.0501 27.2598 62.877C26.8451 62.6992 26.4873 62.4508 26.1865 62.1318C25.8903 61.8128 25.6624 61.4346 25.5029 60.9971C25.3433 60.5596 25.2636 60.0811 25.2636 59.5615V59.2744C25.2636 58.6729 25.3526 58.1374 25.5303 57.668C25.708 57.194 25.9495 56.793 26.2548 56.4648C26.5601 56.1367 26.9065 55.8883 27.2939 55.7197C27.6812 55.5511 28.0824 55.4668 28.4971 55.4668C29.0257 55.4668 29.4815 55.5579 29.8643 55.7402C30.2517 55.9225 30.5683 56.1777 30.8144 56.5059C31.0605 56.8294 31.2429 57.2122 31.3614 57.6543C31.4798 58.0918 31.5391 58.5703 31.5391 59.0898V59.6572H26.0155V58.625H30.2743V58.5293C30.2561 58.2012 30.1878 57.8822 30.0694 57.5723C29.9554 57.2624 29.773 57.0072 29.5224 56.8066C29.2717 56.6061 28.93 56.5059 28.4971 56.5059C28.21 56.5059 27.9456 56.5674 27.704 56.6904C27.4625 56.8089 27.2552 56.9867 27.0821 57.2236C26.9089 57.4606 26.7743 57.75 26.6786 58.0918C26.5829 58.4336 26.5351 58.8278 26.5351 59.2744V59.5615C26.5351 59.9124 26.5829 60.2428 26.6786 60.5527C26.7789 60.8581 26.9224 61.127 27.1093 61.3594C27.3007 61.5918 27.5309 61.7741 27.7998 61.9062C28.0733 62.0384 28.3832 62.1045 28.7295 62.1045C29.1761 62.1045 29.5544 62.0133 29.8643 61.8311C30.1742 61.6488 30.4452 61.4049 30.6777 61.0996L31.4434 61.708C31.2839 61.9495 31.081 62.1797 30.8349 62.3984C30.5888 62.6172 30.2858 62.7949 29.9258 62.9316C29.5703 63.0684 29.1487 63.1367 28.6611 63.1367ZM35.9756 62.0977C36.2764 62.0977 36.5544 62.0361 36.8096 61.9131C37.0648 61.79 37.2743 61.6214 37.4384 61.4072C37.6025 61.1885 37.6959 60.9401 37.7188 60.6621H38.9218C38.899 61.0996 38.751 61.5075 38.4776 61.8857C38.2087 62.2594 37.8554 62.5625 37.4179 62.7949C36.9804 63.0228 36.4997 63.1367 35.9756 63.1367C35.4196 63.1367 34.9343 63.0387 34.5196 62.8428C34.1094 62.6468 33.7675 62.3779 33.4941 62.0361C33.2252 61.6943 33.0224 61.3024 32.8857 60.8604C32.7535 60.4137 32.6875 59.9421 32.6875 59.4453V59.1582C32.6875 58.6615 32.7535 58.1921 32.8857 57.75C33.0224 57.3034 33.2252 56.9092 33.4941 56.5674C33.7675 56.2256 34.1094 55.9567 34.5196 55.7607C34.9343 55.5648 35.4196 55.4668 35.9756 55.4668C36.5544 55.4668 37.0601 55.5853 37.4931 55.8223C37.926 56.0547 38.2656 56.3737 38.5117 56.7793C38.7624 57.1803 38.899 57.6361 38.9218 58.1465H37.7188C37.6959 57.8411 37.6094 57.5654 37.459 57.3193C37.3132 57.0732 37.1126 56.8773 36.8573 56.7314C36.6067 56.5811 36.3128 56.5059 35.9756 56.5059C35.5882 56.5059 35.2624 56.5833 34.9981 56.7383C34.7383 56.8887 34.5308 57.0938 34.3759 57.3535C34.2255 57.6087 34.1162 57.8936 34.0479 58.208C33.9841 58.5179 33.9521 58.8346 33.9521 59.1582V59.4453C33.9521 59.7689 33.9841 60.0879 34.0479 60.4023C34.1117 60.7168 34.2187 61.0016 34.3691 61.2568C34.524 61.512 34.7314 61.7171 34.9911 61.8721C35.2555 62.0225 35.5837 62.0977 35.9756 62.0977ZM41.7178 55.6035V63H40.4463V55.6035H41.7178ZM40.3506 53.6416C40.3506 53.4365 40.412 53.2633 40.5351 53.1221C40.6627 52.9808 40.8495 52.9102 41.0956 52.9102C41.3372 52.9102 41.5217 52.9808 41.6493 53.1221C41.7815 53.2633 41.8476 53.4365 41.8476 53.6416C41.8476 53.8376 41.7815 54.0062 41.6493 54.1475C41.5217 54.2842 41.3372 54.3525 41.0956 54.3525C40.8495 54.3525 40.6627 54.2842 40.5351 54.1475C40.412 54.0062 40.3506 53.8376 40.3506 53.6416ZM45.0126 57.0254V65.8438H43.7411V55.6035H44.9033L45.0126 57.0254ZM49.9961 59.2402V59.3838C49.9961 59.9215 49.9323 60.4206 49.8047 60.8809C49.6771 61.3366 49.4903 61.7331 49.2442 62.0703C49.0026 62.4076 48.7041 62.6696 48.3487 62.8564C47.9932 63.0433 47.5853 63.1367 47.125 63.1367C46.6556 63.1367 46.2409 63.0592 45.8809 62.9043C45.5209 62.7493 45.2155 62.5238 44.9649 62.2275C44.7142 61.9313 44.5137 61.5758 44.3633 61.1611C44.2175 60.7464 44.1172 60.2793 44.0625 59.7598V58.9941C44.1172 58.4473 44.2197 57.9574 44.37 57.5244C44.5204 57.0915 44.7188 56.7223 44.9649 56.417C45.2155 56.1071 45.5186 55.8724 45.874 55.7129C46.2295 55.5488 46.6397 55.4668 47.1045 55.4668C47.5694 55.4668 47.9817 55.5579 48.3417 55.7402C48.7017 55.918 49.0048 56.1732 49.2509 56.5059C49.497 56.8385 49.6817 57.2373 49.8047 57.7021C49.9323 58.1624 49.9961 58.6751 49.9961 59.2402ZM48.7246 59.3838V59.2402C48.7246 58.8711 48.6858 58.5247 48.6083 58.2012C48.5308 57.873 48.4102 57.5859 48.2461 57.3398C48.0866 57.0892 47.8815 56.8932 47.6309 56.752C47.3802 56.6061 47.0817 56.5332 46.7354 56.5332C46.4164 56.5332 46.1383 56.5879 45.9013 56.6973C45.6689 56.8066 45.4706 56.9548 45.3066 57.1416C45.1425 57.3239 45.0082 57.5335 44.9033 57.7705C44.8031 58.0029 44.7278 58.2445 44.6777 58.4951V60.2656C44.7688 60.5846 44.8965 60.8854 45.0606 61.168C45.2246 61.446 45.4434 61.6715 45.7168 61.8447C45.9903 62.0133 46.3343 62.0977 46.749 62.0977C47.0908 62.0977 47.3848 62.027 47.6309 61.8857C47.8815 61.7399 48.0866 61.5417 48.2461 61.291C48.4102 61.0404 48.5308 60.7533 48.6083 60.4297C48.6858 60.1016 48.7246 59.7529 48.7246 59.3838ZM52.9833 55.6035V63H51.7118V55.6035H52.9833ZM51.6161 53.6416C51.6161 53.4365 51.6777 53.2633 51.8007 53.1221C51.9283 52.9808 52.1152 52.9102 52.3613 52.9102C52.6028 52.9102 52.7875 52.9808 52.9151 53.1221C53.0472 53.2633 53.1132 53.4365 53.1132 53.6416C53.1132 53.8376 53.0472 54.0062 52.9151 54.1475C52.7875 54.2842 52.6028 54.3525 52.3613 54.3525C52.1152 54.3525 51.9283 54.2842 51.8007 54.1475C51.6777 54.0062 51.6161 53.8376 51.6161 53.6416ZM58.083 63.1367C57.5681 63.1367 57.1009 63.0501 56.6817 62.877C56.267 62.6992 55.9091 62.4508 55.6083 62.1318C55.3121 61.8128 55.0842 61.4346 54.9247 60.9971C54.7652 60.5596 54.6856 60.0811 54.6856 59.5615V59.2744C54.6856 58.6729 54.7744 58.1374 54.9522 57.668C55.1299 57.194 55.3713 56.793 55.6767 56.4648C55.982 56.1367 56.3284 55.8883 56.7157 55.7197C57.1031 55.5511 57.5042 55.4668 57.9189 55.4668C58.4475 55.4668 58.9033 55.5579 59.2862 55.7402C59.6735 55.9225 59.9902 56.1777 60.2363 56.5059C60.4823 56.8294 60.6647 57.2122 60.7832 57.6543C60.9017 58.0918 60.9609 58.5703 60.9609 59.0898V59.6572H55.4375V58.625H59.6962V58.5293C59.678 58.2012 59.6096 57.8822 59.4911 57.5723C59.3772 57.2624 59.1949 57.0072 58.9443 56.8066C58.6936 56.6061 58.3518 56.5059 57.9189 56.5059C57.6318 56.5059 57.3674 56.5674 57.1259 56.6904C56.8844 56.8089 56.677 56.9867 56.5038 57.2236C56.3307 57.4606 56.1963 57.75 56.1006 58.0918C56.0049 58.4336 55.9571 58.8278 55.9571 59.2744V59.5615C55.9571 59.9124 56.0049 60.2428 56.1006 60.5527C56.2009 60.8581 56.3443 61.127 56.5312 61.3594C56.7226 61.5918 56.9528 61.7741 57.2217 61.9062C57.4951 62.0384 57.8049 62.1045 58.1513 62.1045C58.5979 62.1045 58.9763 62.0133 59.2862 61.8311C59.5961 61.6488 59.8672 61.4049 60.0996 61.0996L60.8653 61.708C60.7058 61.9495 60.5029 62.1797 60.2568 62.3984C60.0107 62.6172 59.7077 62.7949 59.3477 62.9316C58.9922 63.0684 58.5707 63.1367 58.083 63.1367ZM63.7022 57.1826V63H62.4375V55.6035H63.6337L63.7022 57.1826ZM63.4013 59.0215L62.875 59.001C62.8796 58.4951 62.9548 58.028 63.1006 57.5996C63.2464 57.1667 63.4514 56.7907 63.7157 56.4717C63.9801 56.1527 64.2946 55.9066 64.6592 55.7334C65.0283 55.5557 65.4361 55.4668 65.8827 55.4668C66.2473 55.4668 66.5755 55.5169 66.8672 55.6172C67.1589 55.7129 67.4071 55.8678 67.6122 56.082C67.8219 56.2962 67.9814 56.5742 68.0907 56.916C68.2001 57.2533 68.2548 57.6657 68.2548 58.1533V63H66.9833V58.1396C66.9833 57.7523 66.9265 57.4424 66.8125 57.21C66.6986 56.973 66.5321 56.8021 66.3134 56.6973C66.0947 56.5879 65.8258 56.5332 65.5068 56.5332C65.1923 56.5332 64.9053 56.5993 64.6455 56.7314C64.3903 56.8636 64.1692 57.0459 63.9823 57.2783C63.8001 57.5107 63.6565 57.7773 63.5517 58.0781C63.4514 58.3743 63.4013 58.6888 63.4013 59.0215ZM73.2724 55.6035V56.5742H69.2734V55.6035H73.2724ZM70.6269 53.8057H71.8916V61.168C71.8916 61.4186 71.9303 61.6077 72.0077 61.7354C72.0852 61.863 72.1856 61.9473 72.3086 61.9883C72.4317 62.0293 72.5638 62.0498 72.7051 62.0498C72.8099 62.0498 72.9193 62.0407 73.0332 62.0225C73.1517 61.9997 73.2405 61.9814 73.2997 61.9678L73.3067 63C73.2064 63.0319 73.0742 63.0615 72.9102 63.0889C72.7507 63.1208 72.557 63.1367 72.3291 63.1367C72.0192 63.1367 71.7344 63.0752 71.4746 62.9521C71.2149 62.8291 71.0075 62.624 70.8526 62.3369C70.7022 62.0452 70.6269 61.6533 70.6269 61.1611V53.8057ZM79.0625 61.0381C79.0625 60.8558 79.0214 60.6872 78.9394 60.5322C78.8619 60.3727 78.7002 60.2292 78.4541 60.1016C78.2126 59.9694 77.8479 59.8555 77.3603 59.7598C76.9501 59.6732 76.5788 59.5706 76.2461 59.4521C75.918 59.3337 75.6376 59.1901 75.4052 59.0215C75.1773 58.8529 75.0019 58.6546 74.8788 58.4268C74.7558 58.1989 74.6943 57.9323 74.6943 57.627C74.6943 57.3353 74.7582 57.0596 74.8858 56.7998C75.0179 56.54 75.2024 56.3099 75.4394 56.1094C75.6809 55.9089 75.9704 55.7516 76.3076 55.6377C76.6449 55.5238 77.0209 55.4668 77.4356 55.4668C78.028 55.4668 78.5339 55.5716 78.9531 55.7812C79.3724 55.9909 79.6937 56.2712 79.917 56.6221C80.1403 56.9684 80.2519 57.3535 80.2519 57.7773H78.9872C78.9872 57.5723 78.9258 57.374 78.8028 57.1826C78.6843 56.9867 78.5087 56.8249 78.2763 56.6973C78.0484 56.5697 77.7683 56.5059 77.4356 56.5059C77.0847 56.5059 76.7998 56.5605 76.5811 56.6699C76.3669 56.7747 76.2096 56.9092 76.1093 57.0732C76.0136 57.2373 75.9657 57.4105 75.9657 57.5928C75.9657 57.7295 75.9886 57.8525 76.0342 57.9619C76.0843 58.0667 76.1708 58.1647 76.2939 58.2559C76.4169 58.3424 76.5901 58.4245 76.8134 58.502C77.0367 58.5794 77.3215 58.6569 77.6679 58.7344C78.274 58.8711 78.7731 59.0352 79.1651 59.2266C79.557 59.418 79.8487 59.6527 80.0401 59.9307C80.2315 60.2087 80.3272 60.5459 80.3272 60.9424C80.3272 61.266 80.2588 61.5622 80.1221 61.8311C79.9899 62.0999 79.7962 62.3324 79.541 62.5283C79.2904 62.7197 78.9896 62.8701 78.6387 62.9795C78.2923 63.0843 77.9027 63.1367 77.4698 63.1367C76.8181 63.1367 76.2665 63.0205 75.8154 62.7881C75.3642 62.5557 75.0225 62.2549 74.7901 61.8857C74.5576 61.5166 74.4413 61.127 74.4413 60.7168H75.7128C75.731 61.0632 75.8314 61.3389 76.0137 61.5439C76.196 61.7445 76.4193 61.888 76.6836 61.9746C76.9479 62.0566 77.21 62.0977 77.4698 62.0977C77.8161 62.0977 78.1054 62.0521 78.3378 61.9609C78.5748 61.8698 78.7548 61.7445 78.8779 61.585C79.0009 61.4255 79.0625 61.2432 79.0625 61.0381Z" fill="black" fill-opacity="0.54"/>
<path d="M542.164 59.835H543.477C543.408 60.4639 543.228 61.0267 542.937 61.5234C542.645 62.0202 542.232 62.4144 541.699 62.7061C541.166 62.9932 540.501 63.1367 539.703 63.1367C539.12 63.1367 538.589 63.0273 538.11 62.8086C537.636 62.5898 537.229 62.2799 536.887 61.8789C536.545 61.4733 536.281 60.988 536.094 60.4229C535.911 59.8532 535.82 59.2197 535.82 58.5225V57.5312C535.82 56.834 535.911 56.2028 536.094 55.6377C536.281 55.068 536.547 54.5804 536.894 54.1748C537.244 53.7692 537.666 53.457 538.158 53.2383C538.65 53.0195 539.204 52.9102 539.819 52.9102C540.571 52.9102 541.207 53.0514 541.727 53.334C542.246 53.6165 542.649 54.0085 542.937 54.5098C543.228 55.0065 543.408 55.583 543.477 56.2393H542.164C542.1 55.7744 541.982 55.3757 541.809 55.043C541.635 54.7057 541.389 54.446 541.07 54.2637C540.751 54.0814 540.334 53.9902 539.819 53.9902C539.377 53.9902 538.988 54.0745 538.65 54.2432C538.318 54.4118 538.037 54.651 537.81 54.9609C537.586 55.2708 537.418 55.6423 537.304 56.0752C537.19 56.5081 537.133 56.9889 537.133 57.5176V58.5225C537.133 59.0101 537.183 59.4681 537.283 59.8965C537.388 60.3249 537.545 60.7008 537.755 61.0244C537.965 61.348 538.231 61.6032 538.555 61.79C538.878 61.9723 539.261 62.0635 539.703 62.0635C540.264 62.0635 540.71 61.9746 541.043 61.7969C541.376 61.6191 541.626 61.3639 541.795 61.0312C541.968 60.6986 542.091 60.2998 542.164 59.835ZM548.043 62.0977C548.344 62.0977 548.622 62.0361 548.877 61.9131C549.132 61.79 549.342 61.6214 549.506 61.4072C549.67 61.1885 549.763 60.9401 549.786 60.6621H550.989C550.966 61.0996 550.818 61.5075 550.545 61.8857C550.276 62.2594 549.923 62.5625 549.485 62.7949C549.048 63.0228 548.567 63.1367 548.043 63.1367C547.487 63.1367 547.002 63.0387 546.587 62.8428C546.177 62.6468 545.835 62.3779 545.562 62.0361C545.293 61.6943 545.09 61.3024 544.953 60.8604C544.821 60.4137 544.755 59.9421 544.755 59.4453V59.1582C544.755 58.6615 544.821 58.1921 544.953 57.75C545.09 57.3034 545.293 56.9092 545.562 56.5674C545.835 56.2256 546.177 55.9567 546.587 55.7607C547.002 55.5648 547.487 55.4668 548.043 55.4668C548.622 55.4668 549.128 55.5853 549.561 55.8223C549.993 56.0547 550.333 56.3737 550.579 56.7793C550.83 57.1803 550.966 57.6361 550.989 58.1465H549.786C549.763 57.8411 549.677 57.5654 549.526 57.3193C549.381 57.0732 549.18 56.8773 548.925 56.7314C548.674 56.5811 548.38 56.5059 548.043 56.5059C547.656 56.5059 547.33 56.5833 547.065 56.7383C546.806 56.8887 546.598 57.0938 546.443 57.3535C546.293 57.6087 546.184 57.8936 546.115 58.208C546.051 58.5179 546.02 58.8346 546.02 59.1582V59.4453C546.02 59.7689 546.051 60.0879 546.115 60.4023C546.179 60.7168 546.286 61.0016 546.437 61.2568C546.591 61.512 546.799 61.7171 547.059 61.8721C547.323 62.0225 547.651 62.0977 548.043 62.0977Z" fill="black" fill-opacity="0.54"/>
<path d="M560.704 58.3447H558.182L558.168 57.2852H560.458C560.836 57.2852 561.167 57.2214 561.449 57.0938C561.732 56.9661 561.951 56.7839 562.105 56.5469C562.265 56.3053 562.345 56.0182 562.345 55.6855C562.345 55.321 562.274 55.0247 562.133 54.7969C561.996 54.5645 561.784 54.3958 561.497 54.291C561.215 54.1816 560.855 54.127 560.417 54.127H558.476V63H557.156V53.0469H560.417C560.927 53.0469 561.383 53.0993 561.784 53.2041C562.185 53.3044 562.525 53.4639 562.803 53.6826C563.085 53.8968 563.3 54.1702 563.445 54.5029C563.591 54.8356 563.664 55.2344 563.664 55.6992C563.664 56.1094 563.559 56.4808 563.35 56.8135C563.14 57.1416 562.848 57.4105 562.475 57.6201C562.105 57.8298 561.673 57.9642 561.176 58.0234L560.704 58.3447ZM560.643 63H557.662L558.407 61.9268H560.643C561.062 61.9268 561.417 61.8538 561.709 61.708C562.005 61.5622 562.231 61.3571 562.386 61.0928C562.541 60.8239 562.618 60.5072 562.618 60.1426C562.618 59.7734 562.552 59.4544 562.42 59.1855C562.288 58.9167 562.08 58.7093 561.798 58.5635C561.515 58.4176 561.151 58.3447 560.704 58.3447H558.824L558.838 57.2852H561.408L561.689 57.668C562.167 57.709 562.573 57.8457 562.905 58.0781C563.238 58.306 563.491 58.5977 563.664 58.9531C563.842 59.3086 563.931 59.7005 563.931 60.1289C563.931 60.7487 563.794 61.2728 563.521 61.7012C563.252 62.125 562.871 62.4486 562.379 62.6719C561.887 62.8906 561.308 63 560.643 63ZM568.647 62.0977C568.948 62.0977 569.226 62.0361 569.481 61.9131C569.737 61.79 569.946 61.6214 570.11 61.4072C570.274 61.1885 570.368 60.9401 570.391 60.6621H571.594C571.571 61.0996 571.423 61.5075 571.149 61.8857C570.881 62.2594 570.527 62.5625 570.09 62.7949C569.652 63.0228 569.172 63.1367 568.647 63.1367C568.091 63.1367 567.606 63.0387 567.191 62.8428C566.781 62.6468 566.439 62.3779 566.166 62.0361C565.897 61.6943 565.694 61.3024 565.558 60.8604C565.425 60.4137 565.359 59.9421 565.359 59.4453V59.1582C565.359 58.6615 565.425 58.1921 565.558 57.75C565.694 57.3034 565.897 56.9092 566.166 56.5674C566.439 56.2256 566.781 55.9567 567.191 55.7607C567.606 55.5648 568.091 55.4668 568.647 55.4668C569.226 55.4668 569.732 55.5853 570.165 55.8223C570.598 56.0547 570.938 56.3737 571.184 56.7793C571.434 57.1803 571.571 57.6361 571.594 58.1465H570.391C570.368 57.8411 570.281 57.5654 570.131 57.3193C569.985 57.0732 569.785 56.8773 569.529 56.7314C569.279 56.5811 568.985 56.5059 568.647 56.5059C568.26 56.5059 567.934 56.5833 567.67 56.7383C567.41 56.8887 567.203 57.0938 567.048 57.3535C566.897 57.6087 566.788 57.8936 566.72 58.208C566.656 58.5179 566.624 58.8346 566.624 59.1582V59.4453C566.624 59.7689 566.656 60.0879 566.72 60.4023C566.784 60.7168 566.891 61.0016 567.041 61.2568C567.196 61.512 567.403 61.7171 567.663 61.8721C567.927 62.0225 568.256 62.0977 568.647 62.0977ZM575.976 62.0977C576.276 62.0977 576.554 62.0361 576.81 61.9131C577.065 61.79 577.274 61.6214 577.439 61.4072C577.603 61.1885 577.696 60.9401 577.719 60.6621H578.922C578.899 61.0996 578.751 61.5075 578.478 61.8857C578.209 62.2594 577.855 62.5625 577.418 62.7949C576.98 63.0228 576.5 63.1367 575.976 63.1367C575.42 63.1367 574.934 63.0387 574.52 62.8428C574.109 62.6468 573.768 62.3779 573.494 62.0361C573.225 61.6943 573.022 61.3024 572.886 60.8604C572.754 60.4137 572.688 59.9421 572.688 59.4453V59.1582C572.688 58.6615 572.754 58.1921 572.886 57.75C573.022 57.3034 573.225 56.9092 573.494 56.5674C573.768 56.2256 574.109 55.9567 574.52 55.7607C574.934 55.5648 575.42 55.4668 575.976 55.4668C576.554 55.4668 577.06 55.5853 577.493 55.8223C577.926 56.0547 578.266 56.3737 578.512 56.7793C578.762 57.1803 578.899 57.6361 578.922 58.1465H577.719C577.696 57.8411 577.609 57.5654 577.459 57.3193C577.313 57.0732 577.113 56.8773 576.857 56.7314C576.607 56.5811 576.313 56.5059 575.976 56.5059C575.588 56.5059 575.262 56.5833 574.998 56.7383C574.738 56.8887 574.531 57.0938 574.376 57.3535C574.226 57.6087 574.116 57.8936 574.048 58.208C573.984 58.5179 573.952 58.8346 573.952 59.1582V59.4453C573.952 59.7689 573.984 60.0879 574.048 60.4023C574.112 60.7168 574.219 61.0016 574.369 61.2568C574.524 61.512 574.731 61.7171 574.991 61.8721C575.256 62.0225 575.584 62.0977 575.976 62.0977Z" fill="black" fill-opacity="0.54"/>
<path d="M16 111H584" stroke="#EDEFF1"/>
<path d="M16 75H584" stroke="#EDEFF1"/>
</svg>
