<svg width="600" height="114" viewBox="0 0 600 114" fill="none" xmlns="http://www.w3.org/2000/svg">
<path d="M600 0H0V114H600V0Z" fill="white"/>
<path d="M110 65H20C17.7909 65 16 66.7909 16 69V97C16 99.2091 17.7909 101 20 101H110C112.209 101 114 99.2091 114 97V69C114 66.7909 112.209 65 110 65Z" fill="#1A73E8"/>
<path d="M89 65H88V101H89V65Z" fill="#185ABC"/>
<path d="M41.2509 84.437C41.2509 84.231 41.219 84.049 41.1552 83.89C41.096 83.73 40.9889 83.584 40.834 83.452C40.679 83.32 40.4603 83.192 40.1777 83.069C39.8997 82.942 39.5442 82.812 39.1113 82.68C38.6373 82.534 38.1998 82.372 37.7988 82.194C37.4023 82.012 37.056 81.802 36.7597 81.565C36.4635 81.324 36.2334 81.048 36.0693 80.738C35.9052 80.424 35.8232 80.062 35.8232 79.651C35.8232 79.246 35.9075 78.877 36.0761 78.544C36.2493 78.211 36.4931 77.924 36.8076 77.683C37.1266 77.437 37.5026 77.247 37.9355 77.115C38.3685 76.979 38.847 76.91 39.3711 76.91C40.1093 76.91 40.7451 77.047 41.2783 77.32C41.8161 77.594 42.2285 77.961 42.5156 78.421C42.8073 78.881 42.9531 79.389 42.9531 79.945H41.2509C41.2509 79.617 41.1803 79.328 41.039 79.077C40.9023 78.822 40.6927 78.621 40.4101 78.476C40.1321 78.33 39.7789 78.257 39.3506 78.257C38.945 78.257 38.6077 78.318 38.3388 78.441C38.07 78.564 37.8694 78.731 37.7373 78.94C37.6051 79.15 37.539 79.387 37.539 79.651C37.539 79.838 37.5823 80.009 37.6689 80.164C37.7555 80.314 37.8877 80.456 38.0654 80.588C38.2431 80.715 38.4664 80.836 38.7353 80.95C39.0042 81.064 39.3209 81.174 39.6855 81.278C40.2369 81.442 40.7177 81.625 41.1279 81.825C41.5381 82.021 41.8799 82.244 42.1533 82.495C42.4267 82.746 42.6318 83.031 42.7685 83.35C42.9052 83.664 42.9736 84.022 42.9736 84.423C42.9736 84.842 42.8893 85.22 42.7207 85.558C42.5521 85.89 42.3105 86.175 41.9961 86.412C41.6862 86.645 41.3125 86.825 40.875 86.952C40.442 87.075 39.959 87.137 39.4258 87.137C38.9472 87.137 38.4756 87.073 38.0107 86.945C37.5504 86.818 37.1312 86.624 36.7529 86.364C36.3746 86.1 36.0739 85.772 35.8506 85.38C35.6272 84.983 35.5156 84.521 35.5156 83.992H37.2314C37.2314 84.316 37.2861 84.591 37.3955 84.819C37.5094 85.047 37.6666 85.234 37.8672 85.38C38.0677 85.521 38.3001 85.626 38.5644 85.694C38.8333 85.763 39.1204 85.797 39.4258 85.797C39.8268 85.797 40.1618 85.74 40.4306 85.626C40.7041 85.512 40.9091 85.353 41.0459 85.147C41.1826 84.942 41.2509 84.705 41.2509 84.437ZM47.4479 87.137C46.901 87.137 46.4065 87.048 45.9645 86.87C45.527 86.688 45.1533 86.435 44.8434 86.111C44.538 85.788 44.3033 85.407 44.1393 84.97C43.9752 84.532 43.8932 84.061 43.8932 83.555V83.281C43.8932 82.702 43.9775 82.178 44.1461 81.709C44.3147 81.24 44.5494 80.839 44.8502 80.506C45.151 80.169 45.5065 79.911 45.9166 79.733C46.3268 79.556 46.7711 79.467 47.2496 79.467C47.7783 79.467 48.2408 79.556 48.6373 79.733C49.0338 79.911 49.3619 80.162 49.6217 80.485C49.886 80.804 50.082 81.185 50.2096 81.627C50.3417 82.069 50.4078 82.557 50.4078 83.09V83.794H44.693V82.611H48.7809V82.481C48.7718 82.185 48.7125 81.907 48.6031 81.647C48.4983 81.388 48.3365 81.178 48.1178 81.019C47.899 80.859 47.6074 80.779 47.2428 80.779C46.9693 80.779 46.7255 80.839 46.5113 80.957C46.3017 81.071 46.1262 81.237 45.985 81.456C45.8437 81.675 45.7343 81.939 45.6568 82.249C45.5839 82.554 45.5475 82.898 45.5475 83.281V83.555C45.5475 83.878 45.5908 84.179 45.6774 84.457C45.7685 84.73 45.9007 84.97 46.0738 85.175C46.247 85.38 46.4566 85.542 46.7027 85.66C46.9488 85.774 47.2291 85.831 47.5436 85.831C47.94 85.831 48.2932 85.751 48.6031 85.592C48.913 85.432 49.1819 85.207 49.4098 84.915L50.2779 85.756C50.1184 85.988 49.9111 86.212 49.6559 86.426C49.4007 86.635 49.0885 86.806 48.7193 86.938C48.3548 87.071 47.9309 87.137 47.4479 87.137ZM53.1868 81.183V87H51.5393V79.604H53.0911L53.1868 81.183ZM52.8928 83.028L52.3596 83.021C52.3642 82.497 52.4371 82.017 52.5784 81.579C52.7242 81.142 52.9247 80.766 53.1799 80.451C53.4397 80.137 53.7496 79.895 54.1096 79.727C54.4696 79.553 54.8707 79.467 55.3127 79.467C55.6682 79.467 55.9895 79.517 56.2766 79.617C56.5683 79.713 56.8167 79.87 57.0217 80.089C57.2314 80.308 57.3909 80.592 57.5002 80.943C57.6096 81.29 57.6643 81.716 57.6643 82.222V87H56.01V82.215C56.01 81.859 55.9576 81.579 55.8528 81.374C55.7525 81.164 55.6044 81.016 55.4084 80.93C55.217 80.839 54.9778 80.793 54.6907 80.793C54.4081 80.793 54.1552 80.852 53.9319 80.971C53.7086 81.089 53.5194 81.251 53.3645 81.456C53.2141 81.661 53.0979 81.898 53.0159 82.167C52.9338 82.436 52.8928 82.723 52.8928 83.028ZM63.7177 85.469V76.5H65.372V87H63.8749L63.7177 85.469ZM58.9052 83.384V83.24C58.9052 82.68 58.9712 82.169 59.1034 81.709C59.2356 81.244 59.427 80.845 59.6776 80.513C59.9283 80.175 60.2336 79.918 60.5936 79.74C60.9537 79.558 61.3593 79.467 61.8104 79.467C62.2571 79.467 62.649 79.553 62.9862 79.727C63.3235 79.9 63.6106 80.148 63.8475 80.472C64.0845 80.791 64.2737 81.174 64.4149 81.62C64.5562 82.062 64.6565 82.554 64.7157 83.097V83.555C64.6565 84.083 64.5562 84.566 64.4149 85.004C64.2737 85.441 64.0845 85.82 63.8475 86.139C63.6106 86.458 63.3212 86.704 62.9794 86.877C62.6421 87.05 62.2479 87.137 61.7968 87.137C61.3502 87.137 60.9468 87.043 60.5868 86.856C60.2313 86.67 59.9283 86.408 59.6776 86.07C59.427 85.733 59.2356 85.337 59.1034 84.881C58.9712 84.421 58.9052 83.922 58.9052 83.384ZM60.5526 83.24V83.384C60.5526 83.721 60.5822 84.035 60.6415 84.327C60.7053 84.619 60.8033 84.876 60.9354 85.1C61.0676 85.318 61.2385 85.492 61.4481 85.619C61.6623 85.742 61.9175 85.804 62.2138 85.804C62.5875 85.804 62.8951 85.722 63.1366 85.558C63.3781 85.394 63.5673 85.173 63.704 84.895C63.8453 84.612 63.941 84.298 63.9911 83.951V82.714C63.9638 82.445 63.9068 82.194 63.8202 81.962C63.7382 81.729 63.6265 81.527 63.4852 81.354C63.344 81.176 63.1685 81.039 62.9589 80.943C62.7538 80.843 62.51 80.793 62.2274 80.793C61.9266 80.793 61.6714 80.857 61.4618 80.984C61.2522 81.112 61.079 81.287 60.9423 81.511C60.8101 81.734 60.7121 81.994 60.6483 82.29C60.5845 82.586 60.5526 82.903 60.5526 83.24Z" fill="white"/>
<path d="M98.6641 81L101.997 84.333L105.331 81H98.6641Z" fill="white"/>
<g filter="url(#filter0_ddd_2534_2401)">
<path d="M585 10H16C14.8954 10 14 10.8954 14 12V44C14 45.1046 14.8954 46 16 46H585C586.105 46 587 45.1046 587 44V12C587 10.8954 586.105 10 585 10Z" fill="white"/>
<path d="M32.4609 24.333C30.0318 24.333 27.8318 25.241 26.1359 26.717L22.8359 23.417V31.667H31.0859L27.7676 28.348C29.0418 27.285 30.6643 26.625 32.4609 26.625C35.7059 26.625 38.4651 28.742 39.4276 31.667L41.6001 30.952C40.3259 27.111 36.7234 24.333 32.4609 24.333Z" fill="black" fill-opacity="0.54"/>
<path d="M68.8691 26.717C67.1732 25.241 64.9732 24.333 62.5441 24.333C58.2816 24.333 54.6791 27.111 53.4141 30.952L55.5774 31.667C56.5399 28.742 59.2899 26.625 62.5441 26.625C64.3316 26.625 65.9632 27.285 67.2374 28.348L63.9191 31.667H72.1691V23.417L68.8691 26.717Z" fill="black" fill-opacity="0.54"/>
<path d="M82 38V18" stroke="#EDEFF1"/>
<path d="M95.2506 29.937C95.2506 29.731 95.2186 29.549 95.1546 29.39C95.0956 29.23 94.9886 29.084 94.8336 28.952C94.6786 28.82 94.4596 28.6919 94.1776 28.5689C93.8996 28.4419 93.5436 28.3119 93.1106 28.1799C92.6366 28.0339 92.1996 27.8719 91.7986 27.6939C91.4016 27.5119 91.0556 27.3019 90.7596 27.0649C90.4636 26.8239 90.2326 26.5479 90.0686 26.2379C89.9046 25.9239 89.8226 25.5619 89.8226 25.1509C89.8226 24.7459 89.9076 24.3769 90.0756 24.0439C90.2486 23.7109 90.4926 23.4239 90.8076 23.1829C91.1266 22.9369 91.5026 22.7469 91.9356 22.6149C92.3686 22.4789 92.8466 22.4099 93.3706 22.4099C94.1086 22.4099 94.7446 22.5469 95.2776 22.8199C95.8156 23.0939 96.2286 23.461 96.5156 23.921C96.8066 24.381 96.9526 24.8889 96.9526 25.4449H95.2506C95.2506 25.1169 95.1796 24.828 95.0386 24.577C94.9016 24.322 94.6926 24.121 94.4096 23.976C94.1316 23.83 93.7786 23.757 93.3506 23.757C92.9446 23.757 92.6076 23.8179 92.3386 23.9409C92.0696 24.0639 91.8696 24.2309 91.7366 24.4399C91.6046 24.6499 91.5386 24.8869 91.5386 25.1509C91.5386 25.3379 91.5816 25.5089 91.6686 25.6639C91.7556 25.8139 91.8876 25.956 92.0646 26.088C92.2426 26.215 92.4666 26.336 92.7346 26.45C93.0036 26.564 93.3206 26.674 93.6856 26.778C94.2366 26.942 94.7176 27.125 95.1276 27.325C95.5376 27.521 95.8796 27.7439 96.1526 27.9949C96.4266 28.2459 96.6316 28.5309 96.7686 28.8499C96.9046 29.1639 96.9736 29.5219 96.9736 29.9229C96.9736 30.3419 96.8886 30.7199 96.7206 31.0579C96.5516 31.3899 96.3106 31.6749 95.9956 31.9119C95.6856 32.1449 95.3126 32.325 94.8746 32.452C94.4416 32.575 93.9586 32.637 93.4256 32.637C92.9466 32.637 92.4756 32.5729 92.0106 32.4449C91.5506 32.3179 91.1306 32.124 90.7526 31.864C90.3746 31.6 90.0736 31.2719 89.8506 30.8799C89.6266 30.4829 89.5156 30.0209 89.5156 29.4919H91.2316C91.2316 29.8159 91.2856 30.0909 91.3956 30.3189C91.5096 30.5469 91.6666 30.7339 91.8666 30.8799C92.0676 31.0209 92.2996 31.1259 92.5646 31.1939C92.8326 31.2629 93.1206 31.2969 93.4256 31.2969C93.8266 31.2969 94.1616 31.2399 94.4306 31.1259C94.7036 31.0119 94.9086 30.8529 95.0456 30.6469C95.1826 30.4419 95.2506 30.205 95.2506 29.937ZM102.357 31.017V27.489C102.357 27.225 102.309 26.997 102.214 26.806C102.118 26.614 101.972 26.466 101.776 26.361C101.585 26.257 101.343 26.2039 101.051 26.2039C100.783 26.2039 100.55 26.2499 100.354 26.3409C100.158 26.4319 100.006 26.555 99.8956 26.71C99.7866 26.865 99.7316 27.04 99.7316 27.236H98.0916C98.0916 26.945 98.1616 26.6619 98.3026 26.3889C98.4446 26.1149 98.6496 25.8709 98.9186 25.6569C99.1876 25.4429 99.5086 25.2739 99.8826 25.1509C100.256 25.0279 100.675 24.9669 101.14 24.9669C101.696 24.9669 102.189 25.0599 102.617 25.2469C103.05 25.4339 103.389 25.7159 103.635 26.0949C103.886 26.4679 104.011 26.9379 104.011 27.5029V30.791C104.011 31.128 104.034 31.431 104.08 31.7C104.13 31.965 104.201 32.1949 104.292 32.3909V32.4999H102.603C102.526 32.3219 102.464 32.0969 102.419 31.8229C102.378 31.5449 102.357 31.276 102.357 31.017ZM102.596 28.002L102.61 29.0209H101.427C101.122 29.0209 100.853 29.0499 100.621 29.1089C100.388 29.1639 100.195 29.2459 100.04 29.3549C99.8846 29.4649 99.7686 29.597 99.6906 29.752C99.6136 29.907 99.5746 30.082 99.5746 30.278C99.5746 30.474 99.6196 30.6539 99.7116 30.8179C99.8026 30.9779 99.9346 31.1029 100.108 31.1939C100.286 31.2849 100.5 31.3309 100.751 31.3309C101.088 31.3309 101.382 31.2629 101.633 31.1259C101.888 30.9849 102.088 30.8139 102.234 30.6129C102.38 30.4079 102.457 30.2149 102.467 30.0319L103 30.7639C102.945 30.9509 102.852 31.1509 102.719 31.3649C102.587 31.5789 102.414 31.7849 102.2 31.9799C101.99 32.1719 101.737 32.329 101.441 32.452C101.149 32.575 100.812 32.637 100.429 32.637C99.9456 32.637 99.5156 32.5409 99.1366 32.3499C98.7586 32.1539 98.4626 31.8919 98.2486 31.5629C98.0346 31.2309 97.9266 30.8549 97.9266 30.4359C97.9266 30.0439 97.9996 29.6969 98.1456 29.3959C98.2966 29.0909 98.5146 28.8359 98.8016 28.6309C99.0936 28.4259 99.4496 28.271 99.8686 28.166C100.288 28.057 100.767 28.002 101.304 28.002H102.596ZM107.228 26.6829V32.4999H105.58V25.1039H107.132L107.228 26.6829ZM106.934 28.528L106.401 28.5209C106.405 27.9969 106.478 27.5169 106.619 27.0789C106.765 26.6419 106.966 26.2659 107.221 25.9509C107.481 25.6369 107.791 25.3949 108.151 25.2269C108.511 25.0529 108.912 24.9669 109.354 24.9669C109.709 24.9669 110.031 25.0169 110.318 25.1169C110.609 25.2129 110.858 25.3699 111.063 25.5889C111.272 25.8079 111.432 26.0919 111.541 26.4429C111.651 26.7899 111.705 27.2159 111.705 27.7219V32.4999H110.051V27.715C110.051 27.359 109.999 27.079 109.894 26.874C109.794 26.664 109.646 26.5159 109.45 26.4299C109.258 26.3389 109.019 26.293 108.732 26.293C108.449 26.293 108.196 26.3519 107.973 26.4709C107.75 26.5889 107.561 26.7509 107.406 26.9559C107.255 27.1609 107.139 27.3979 107.057 27.6669C106.975 27.9359 106.934 28.223 106.934 28.528ZM117.396 30.4969C117.396 30.3329 117.355 30.1849 117.273 30.0529C117.191 29.9159 117.034 29.793 116.802 29.684C116.574 29.574 116.237 29.4739 115.79 29.3829C115.398 29.2959 115.038 29.194 114.71 29.075C114.386 28.952 114.108 28.8039 113.876 28.6309C113.644 28.4579 113.464 28.2529 113.336 28.0159C113.208 27.7789 113.145 27.5049 113.145 27.1949C113.145 26.8949 113.211 26.6099 113.343 26.3409C113.475 26.0719 113.664 25.8349 113.91 25.6299C114.156 25.4249 114.455 25.263 114.806 25.145C115.161 25.026 115.558 24.9669 115.995 24.9669C116.615 24.9669 117.146 25.0719 117.588 25.2809C118.034 25.4859 118.376 25.7669 118.613 26.1219C118.85 26.4729 118.969 26.869 118.969 27.312H117.321C117.321 27.116 117.271 26.933 117.171 26.765C117.075 26.591 116.929 26.452 116.733 26.348C116.537 26.238 116.291 26.184 115.995 26.184C115.713 26.184 115.478 26.2289 115.291 26.3199C115.109 26.4069 114.972 26.5209 114.881 26.6619C114.794 26.8029 114.751 26.958 114.751 27.127C114.751 27.25 114.774 27.3619 114.819 27.4619C114.869 27.5579 114.951 27.6459 115.065 27.7289C115.179 27.8059 115.334 27.879 115.53 27.947C115.731 28.016 115.981 28.0819 116.282 28.1459C116.847 28.2639 117.333 28.4169 117.738 28.6039C118.148 28.7859 118.463 29.023 118.682 29.314C118.9 29.602 119.01 29.966 119.01 30.408C119.01 30.736 118.939 31.0369 118.798 31.3109C118.661 31.5789 118.461 31.814 118.196 32.015C117.932 32.211 117.615 32.363 117.246 32.473C116.882 32.582 116.471 32.637 116.016 32.637C115.346 32.637 114.778 32.5179 114.313 32.2809C113.849 32.0399 113.495 31.7319 113.254 31.3579C113.017 30.9799 112.898 30.5879 112.898 30.1829H114.491C114.509 30.4879 114.594 30.7319 114.744 30.9139C114.899 31.0919 115.09 31.222 115.318 31.304C115.551 31.381 115.79 31.4199 116.036 31.4199C116.332 31.4199 116.581 31.381 116.781 31.304C116.982 31.222 117.134 31.112 117.239 30.976C117.344 30.834 117.396 30.6749 117.396 30.4969ZM129.059 29.937C129.059 29.731 129.027 29.549 128.963 29.39C128.904 29.23 128.797 29.084 128.642 28.952C128.487 28.82 128.268 28.6919 127.986 28.5689C127.708 28.4419 127.352 28.3119 126.919 28.1799C126.445 28.0339 126.008 27.8719 125.607 27.6939C125.21 27.5119 124.864 27.3019 124.568 27.0649C124.271 26.8239 124.041 26.5479 123.877 26.2379C123.713 25.9239 123.631 25.5619 123.631 25.1509C123.631 24.7459 123.715 24.3769 123.884 24.0439C124.057 23.7109 124.301 23.4239 124.615 23.1829C124.935 22.9369 125.31 22.7469 125.743 22.6149C126.176 22.4789 126.655 22.4099 127.179 22.4099C127.917 22.4099 128.553 22.5469 129.086 22.8199C129.624 23.0939 130.036 23.461 130.324 23.921C130.615 24.381 130.761 24.8889 130.761 25.4449H129.059C129.059 25.1169 128.988 24.828 128.847 24.577C128.71 24.322 128.501 24.121 128.218 23.976C127.94 23.83 127.587 23.757 127.158 23.757C126.753 23.757 126.416 23.8179 126.147 23.9409C125.878 24.0639 125.677 24.2309 125.545 24.4399C125.413 24.6499 125.347 24.8869 125.347 25.1509C125.347 25.3379 125.39 25.5089 125.477 25.6639C125.563 25.8139 125.696 25.956 125.873 26.088C126.051 26.215 126.274 26.336 126.543 26.45C126.812 26.564 127.129 26.674 127.493 26.778C128.045 26.942 128.526 27.125 128.936 27.325C129.346 27.521 129.688 27.7439 129.961 27.9949C130.235 28.2459 130.44 28.5309 130.576 28.8499C130.713 29.1639 130.782 29.5219 130.782 29.9229C130.782 30.3419 130.697 30.7199 130.529 31.0579C130.36 31.3899 130.118 31.6749 129.804 31.9119C129.494 32.1449 129.12 32.325 128.683 32.452C128.25 32.575 127.767 32.637 127.234 32.637C126.755 32.637 126.283 32.5729 125.819 32.4449C125.358 32.3179 124.939 32.124 124.561 31.864C124.183 31.6 123.882 31.2719 123.658 30.8799C123.435 30.4829 123.324 30.0209 123.324 29.4919H125.039C125.039 29.8159 125.094 30.0909 125.203 30.3189C125.317 30.5469 125.475 30.7339 125.675 30.8799C125.876 31.0209 126.108 31.1259 126.372 31.1939C126.641 31.2629 126.928 31.2969 127.234 31.2969C127.635 31.2969 127.97 31.2399 128.239 31.1259C128.512 31.0119 128.717 30.8529 128.854 30.6469C128.99 30.4419 129.059 30.205 129.059 29.937ZM135.256 32.637C134.709 32.637 134.214 32.5479 133.772 32.3699C133.335 32.1879 132.961 31.935 132.651 31.611C132.346 31.288 132.111 30.9069 131.947 30.4699C131.783 30.0319 131.701 29.5609 131.701 29.0549V28.7809C131.701 28.2019 131.785 27.6779 131.954 27.2089C132.123 26.7399 132.357 26.3389 132.658 26.0059C132.959 25.6689 133.314 25.4109 133.725 25.2329C134.135 25.0559 134.579 24.9669 135.058 24.9669C135.586 24.9669 136.049 25.0559 136.445 25.2329C136.842 25.4109 137.17 25.6619 137.43 25.9849C137.694 26.3039 137.89 26.685 138.017 27.127C138.15 27.569 138.216 28.057 138.216 28.59V29.2939H132.501V28.111H136.589V27.981C136.58 27.685 136.52 27.4069 136.411 27.1469C136.306 26.8879 136.144 26.6779 135.926 26.5189C135.707 26.3589 135.415 26.2789 135.051 26.2789C134.777 26.2789 134.533 26.3389 134.319 26.4569C134.11 26.5709 133.934 26.7369 133.793 26.9559C133.652 27.1749 133.542 27.439 133.465 27.749C133.392 28.054 133.355 28.3979 133.355 28.7809V29.0549C133.355 29.3779 133.399 29.6789 133.485 29.9569C133.576 30.2299 133.709 30.4699 133.882 30.6749C134.055 30.8799 134.265 31.0419 134.511 31.1599C134.757 31.2739 135.037 31.3309 135.351 31.3309C135.748 31.3309 136.101 31.2509 136.411 31.0919C136.721 30.9319 136.99 30.7069 137.218 30.4149L138.086 31.2559C137.926 31.4879 137.719 31.712 137.464 31.926C137.209 32.135 136.896 32.3059 136.527 32.4379C136.163 32.5709 135.739 32.637 135.256 32.637ZM141.015 26.512V32.4999H139.368V25.1039H140.94L141.015 26.512ZM143.278 25.056L143.264 26.5869C143.164 26.5689 143.055 26.555 142.936 26.546C142.822 26.537 142.708 26.5319 142.594 26.5319C142.312 26.5319 142.063 26.573 141.849 26.655C141.635 26.733 141.455 26.8469 141.309 26.9969C141.168 27.1429 141.058 27.321 140.981 27.53C140.904 27.74 140.858 27.9749 140.844 28.2339L140.468 28.262C140.468 27.797 140.514 27.3659 140.605 26.9699C140.696 26.5729 140.833 26.225 141.015 25.924C141.202 25.623 141.434 25.3879 141.712 25.2199C141.995 25.0509 142.321 24.9669 142.69 24.9669C142.79 24.9669 142.897 24.976 143.011 24.994C143.13 25.012 143.219 25.033 143.278 25.056ZM145.934 25.1039V32.4999H144.279V25.1039H145.934ZM144.17 23.1619C144.17 22.9109 144.252 22.7039 144.416 22.5399C144.585 22.3709 144.817 22.2869 145.113 22.2869C145.405 22.2869 145.635 22.3709 145.804 22.5399C145.973 22.7039 146.057 22.9109 146.057 23.1619C146.057 23.4079 145.973 23.6129 145.804 23.7769C145.635 23.9409 145.405 24.0229 145.113 24.0229C144.817 24.0229 144.585 23.9409 144.416 23.7769C144.252 23.6129 144.17 23.4079 144.17 23.1619ZM149.827 32.4999H148.18V24.3929C148.18 23.8409 148.282 23.3789 148.487 23.0049C148.697 22.6269 148.995 22.342 149.383 22.15C149.77 21.954 150.228 21.856 150.757 21.856C150.921 21.856 151.083 21.8679 151.242 21.8909C151.402 21.9089 151.556 21.9379 151.707 21.9789L151.666 23.2509C151.575 23.2279 151.474 23.2119 151.365 23.2029C151.26 23.1939 151.146 23.189 151.023 23.189C150.773 23.189 150.556 23.2369 150.374 23.3329C150.196 23.4239 150.059 23.559 149.964 23.736C149.873 23.914 149.827 24.1329 149.827 24.3929V32.4999ZM151.351 25.1039V26.3069H147.045V25.1039H151.351Z" fill="#202124"/>
<path d="M170.664 26L173.997 29.333L177.331 26H170.664Z" fill="#202124"/>
<path d="M188 38V18" stroke="#EDEFF1"/>
<path d="M198.289 20.667V23.417H202.872V34.417H205.622V23.417H210.206V20.667H198.289ZM215.706 25.25H207.456V28H210.206V34.417H212.956V28H215.706V25.25Z" fill="black" fill-opacity="0.54"/>
<path d="M223.664 26L226.997 29.333L230.331 26H223.664Z" fill="black" fill-opacity="0.54"/>
<path d="M237 38V18" stroke="#EDEFF1"/>
<path d="M259.297 26.891C260.187 26.277 260.81 25.268 260.81 24.333C260.81 22.262 259.206 20.667 257.143 20.667H251.414V33.5H257.867C259.783 33.5 261.268 31.942 261.268 30.026C261.268 28.632 260.48 27.441 259.297 26.891ZM254.164 22.958H256.914C257.675 22.958 258.289 23.572 258.289 24.333C258.289 25.094 257.675 25.708 256.914 25.708H254.164V22.958ZM257.372 31.208H254.164V28.458H257.372C258.133 28.458 258.747 29.072 258.747 29.833C258.747 30.594 258.133 31.208 257.372 31.208Z" fill="black" fill-opacity="0.54"/>
<path d="M285.167 20.667V23.417H287.193L284.058 30.75H281.5V33.5H288.833V30.75H286.808L289.943 23.417H292.5V20.667H285.167Z" fill="black" fill-opacity="0.54"/>
<path d="M318.003 32.583C321.037 32.583 323.503 30.118 323.503 27.083V19.75H321.211V27.083C321.211 28.853 319.772 30.292 318.003 30.292C316.233 30.292 314.794 28.853 314.794 27.083V19.75H312.503V27.083C312.503 30.118 314.968 32.583 318.003 32.583ZM311.586 34.417V36.25H324.419V34.417H311.586Z" fill="black" fill-opacity="0.54"/>
<path d="M342.586 32.583V34.417H355.419V32.583H342.586ZM346.711 28.733H351.294L352.119 30.75H354.044L349.69 20.667H348.315L343.961 30.75H345.886L346.711 28.733ZM349.003 22.482L350.717 27.083H347.288L349.003 22.482Z" fill="black" fill-opacity="0.54"/>
<path d="M365.664 26L368.997 29.333L372.331 26H365.664Z" fill="black" fill-opacity="0.54"/>
<path d="M382 38V18" stroke="#EDEFF1"/>
<path d="M403.75 30.75H392.75V32.583H403.75V30.75ZM403.75 23.417H392.75V25.25H403.75V23.417ZM392.75 28.917H409.25V27.083H392.75V28.917ZM392.75 36.25H409.25V34.417H392.75V36.25ZM392.75 19.75V21.583H409.25V19.75H392.75Z" fill="black" fill-opacity="0.54"/>
<path d="M417.664 26L420.997 29.333L424.331 26H417.664Z" fill="black" fill-opacity="0.54"/>
<path d="M436.836 32.583H438.669V33.042H437.753V33.958H438.669V34.417H436.836V35.333H439.586V31.667H436.836V32.583ZM437.753 24.333H438.669V20.667H436.836V21.583H437.753V24.333ZM436.836 27.083H438.486L436.836 29.008V29.833H439.586V28.917H437.936L439.586 26.992V26.167H436.836V27.083ZM441.419 21.583V23.417H454.253V21.583H441.419ZM441.419 34.417H454.253V32.583H441.419V34.417ZM441.419 28.917H454.253V27.083H441.419V28.917Z" fill="black" fill-opacity="0.54"/>
<path d="M469.664 26.625C468.903 26.625 468.289 27.239 468.289 28C468.289 28.761 468.903 29.375 469.664 29.375C470.425 29.375 471.039 28.761 471.039 28C471.039 27.239 470.425 26.625 469.664 26.625ZM469.664 21.125C468.903 21.125 468.289 21.739 468.289 22.5C468.289 23.261 468.903 23.875 469.664 23.875C470.425 23.875 471.039 23.261 471.039 22.5C471.039 21.739 470.425 21.125 469.664 21.125ZM469.664 32.125C468.903 32.125 468.289 32.748 468.289 33.5C468.289 34.252 468.912 34.875 469.664 34.875C470.416 34.875 471.039 34.252 471.039 33.5C471.039 32.748 470.425 32.125 469.664 32.125ZM472.414 34.417H485.247V32.583H472.414V34.417ZM472.414 28.917H485.247V27.083H472.414V28.917ZM472.414 21.583V23.417H485.247V21.583H472.414Z" fill="black" fill-opacity="0.54"/>
<path d="M507.083 32.583H516.25V30.75H507.083V32.583ZM499.75 28L503.417 31.667V24.333L499.75 28ZM499.75 36.25H516.25V34.417H499.75V36.25ZM499.75 19.75V21.583H516.25V19.75H499.75ZM507.083 25.25H516.25V23.417H507.083V25.25ZM507.083 28.917H516.25V27.083H507.083V28.917Z" fill="black" fill-opacity="0.54"/>
<path d="M530.75 36.25H547.25V34.417H530.75V36.25ZM530.75 24.333V31.667L534.417 28L530.75 24.333ZM538.083 32.583H547.25V30.75H538.083V32.583ZM530.75 19.75V21.583H547.25V19.75H530.75ZM538.083 25.25H547.25V23.417H538.083V25.25ZM538.083 28.917H547.25V27.083H538.083V28.917Z" fill="black" fill-opacity="0.54"/>
<path d="M558 38V18" stroke="#EDEFF1"/>
<path d="M569.664 26L572.997 29.333L576.331 26H569.664Z" fill="black" fill-opacity="0.54"/>
</g>
<mask id="mask0_2534_2401" style="mask-type:luminance" maskUnits="userSpaceOnUse" x="125" y="69" width="28" height="28">
<path d="M151 69H127C125.895 69 125 69.8954 125 71V95C125 96.1046 125.895 97 127 97H151C152.105 97 153 96.1046 153 95V71C153 69.8954 152.105 69 151 69Z" fill="white"/>
</mask>
<g mask="url(#mask0_2534_2401)">
<path d="M139 102C149.493 102 158 93.4934 158 83C158 72.5066 149.493 64 139 64C128.507 64 120 72.5066 120 83C120 93.4934 128.507 102 139 102Z" fill="black" fill-opacity="0.05"/>
<path d="M132.586 87.583V89.417H145.419V87.583H132.586ZM136.711 83.733H141.294L142.119 85.75H144.044L139.69 75.667H138.315L133.961 85.75H135.886L136.711 83.733ZM139.003 77.482L140.717 82.083H137.288L139.003 77.482Z" fill="#202124"/>
</g>
<path d="M177.122 77.5V88.042C177.122 90.067 175.482 91.708 173.456 91.708C171.43 91.708 169.789 90.067 169.789 88.042V76.583C169.789 75.318 170.816 74.292 172.081 74.292C173.346 74.292 174.372 75.318 174.372 76.583V86.208C174.372 86.712 173.96 87.125 173.456 87.125C172.952 87.125 172.539 86.712 172.539 86.208V77.5H171.164V86.208C171.164 87.473 172.191 88.5 173.456 88.5C174.721 88.5 175.747 87.473 175.747 86.208V76.583C175.747 74.557 174.107 72.917 172.081 72.917C170.055 72.917 168.414 74.557 168.414 76.583V88.042C168.414 90.828 170.669 93.083 173.456 93.083C176.242 93.083 178.497 90.828 178.497 88.042V77.5H177.122Z" fill="black" fill-opacity="0.54"/>
<path d="M197.578 83C197.578 81.432 198.852 80.158 200.419 80.158H204.086V78.417H200.419C197.889 78.417 195.836 80.47 195.836 83C195.836 85.53 197.889 87.583 200.419 87.583H204.086V85.842H200.419C198.852 85.842 197.578 84.567 197.578 83ZM201.336 83.917H208.669V82.083H201.336V83.917ZM209.586 78.417H205.919V80.158H209.586C211.153 80.158 212.428 81.432 212.428 83C212.428 84.567 211.153 85.842 209.586 85.842H205.919V87.583H209.586C212.116 87.583 214.169 85.53 214.169 83C214.169 80.47 212.116 78.417 209.586 78.417Z" fill="black" fill-opacity="0.54"/>
<path d="M236.993 73.833C231.933 73.833 227.836 77.94 227.836 83C227.836 88.06 231.933 92.167 236.993 92.167C242.063 92.167 246.169 88.06 246.169 83C246.169 77.94 242.063 73.833 236.993 73.833ZM237.003 90.333C232.951 90.333 229.669 87.052 229.669 83C229.669 78.948 232.951 75.667 237.003 75.667C241.054 75.667 244.336 78.948 244.336 83C244.336 87.052 241.054 90.333 237.003 90.333ZM240.211 82.083C240.972 82.083 241.586 81.469 241.586 80.708C241.586 79.948 240.972 79.333 240.211 79.333C239.45 79.333 238.836 79.948 238.836 80.708C238.836 81.469 239.45 82.083 240.211 82.083ZM233.794 82.083C234.555 82.083 235.169 81.469 235.169 80.708C235.169 79.948 234.555 79.333 233.794 79.333C233.033 79.333 232.419 79.948 232.419 80.708C232.419 81.469 233.033 82.083 233.794 82.083ZM237.003 88.042C239.138 88.042 240.953 86.703 241.687 84.833H232.318C233.052 86.703 234.867 88.042 237.003 88.042Z" fill="black" fill-opacity="0.54"/>
<path d="M271.144 74.292C271.795 74.292 272.4 74.64 272.73 75.199L278.542 85.2C278.872 85.768 278.881 86.464 278.551 87.033L276.388 90.792C276.067 91.36 275.462 91.708 274.802 91.708H268.999L268.99 91.675V91.708H263.187C262.527 91.708 261.922 91.36 261.601 90.792L259.438 87.033C259.109 86.464 259.117 85.768 259.447 85.2L265.259 75.199C265.589 74.64 266.194 74.292 266.845 74.292H271.144ZM268.99 76.125H266.845L261.033 86.125L263.187 89.875H274.802L276.956 86.125L271.144 76.125H268.999L268.99 76.092V76.125ZM269.815 79.104L274.014 86.419L273.345 87.583H264.644L263.975 86.419L268.174 79.104H269.815ZM268.99 81.34L266.478 85.75H271.511L268.999 81.34L268.99 81.3V81.34Z" fill="black" fill-opacity="0.54"/>
<path d="M309.25 89.417V76.583C309.25 75.575 308.425 74.75 307.417 74.75H294.583C293.575 74.75 292.75 75.575 292.75 76.583V89.417C292.75 90.425 293.575 91.25 294.583 91.25H307.417C308.425 91.25 309.25 90.425 309.25 89.417ZM297.792 84.375L300.083 87.134L303.292 83L307.417 88.5H294.583L297.792 84.375Z" fill="black" fill-opacity="0.54"/>
<path d="M335.294 85.017L337.953 86.575L337.219 87.767L333.919 85.75V81.167H335.294V85.017ZM342.169 84.833C342.169 88.876 338.878 92.167 334.836 92.167C332.984 92.167 331.298 91.47 330.005 90.333H325.669C324.615 90.333 323.836 89.554 323.836 88.5V80.25C323.836 79.223 324.652 78.453 325.669 78.417V77.958C325.669 75.676 327.512 73.833 329.794 73.833C331.939 73.833 333.681 75.474 333.883 77.573C334.194 77.528 334.515 77.5 334.836 77.5C338.878 77.5 342.169 80.791 342.169 84.833ZM327.503 78.417H332.086V77.738C331.976 76.574 330.986 75.667 329.794 75.667C328.529 75.667 327.503 76.693 327.503 77.958V78.417ZM340.336 84.833C340.336 81.799 337.87 79.333 334.836 79.333C331.802 79.333 329.336 81.799 329.336 84.833C329.336 87.868 331.802 90.333 334.836 90.333C337.87 90.333 340.336 87.868 340.336 84.833Z" fill="black" fill-opacity="0.54"/>
<path d="M367.5 84.5L360.438 91.502H357V88.064L364.062 81.062L367.5 84.5ZM365.47 74.97C365.763 74.677 366.237 74.677 366.53 74.97L368.321 76.761L369.797 75.268C370.154 74.911 370.731 74.911 371.089 75.268L373.234 77.413C373.592 77.771 373.592 78.349 373.234 78.706L368.48 83.519L365.043 80.082L367.268 77.828L366 76.56L361.53 81.0301C361.237 81.3231 360.763 81.3231 360.47 81.0301C360.177 80.7371 360.177 80.263 360.47 79.97L365.47 74.97Z" fill="black" fill-opacity="0.54"/>
<path d="M546.003 78.667C546.919 78.667 547.669 77.917 547.669 77C547.669 76.083 546.919 75.333 546.003 75.333C545.086 75.333 544.336 76.083 544.336 77C544.336 77.917 545.086 78.667 546.003 78.667ZM546.003 80.333C545.086 80.333 544.336 81.083 544.336 82C544.336 82.917 545.086 83.667 546.003 83.667C546.919 83.667 547.669 82.917 547.669 82C547.669 81.083 546.919 80.333 546.003 80.333ZM546.003 85.333C545.086 85.333 544.336 86.083 544.336 87C544.336 87.917 545.086 88.667 546.003 88.667C546.919 88.667 547.669 87.917 547.669 87C547.669 86.083 546.919 85.333 546.003 85.333Z" fill="#767676"/>
<path d="M568.503 88.417C568.503 89.425 569.328 90.25 570.336 90.25H577.669C578.678 90.25 579.503 89.425 579.503 88.417V77.417H568.503V88.417ZM580.419 74.667H577.211L576.294 73.75H571.711L570.794 74.667H567.586V76.5H580.419V74.667Z" fill="black" fill-opacity="0.54"/>
<defs>
<filter id="filter0_ddd_2534_2401" x="4" y="1" width="593" height="56" filterUnits="userSpaceOnUse" color-interpolation-filters="sRGB">
<feFlood flood-opacity="0" result="BackgroundImageFix"/>
<feColorMatrix in="SourceAlpha" type="matrix" values="0 0 0 0 0 0 0 0 0 0 0 0 0 0 0 0 0 0 127 0" result="hardAlpha"/>
<feOffset dy="4"/>
<feGaussianBlur stdDeviation="2"/>
<feColorMatrix type="matrix" values="0 0 0 0 0 0 0 0 0 0 0 0 0 0 0 0 0 0 0.14 0"/>
<feBlend mode="normal" in2="BackgroundImageFix" result="effect1_dropShadow_2534_2401"/>
<feColorMatrix in="SourceAlpha" type="matrix" values="0 0 0 0 0 0 0 0 0 0 0 0 0 0 0 0 0 0 127 0" result="hardAlpha"/>
<feOffset dy="1"/>
<feGaussianBlur stdDeviation="5"/>
<feColorMatrix type="matrix" values="0 0 0 0 0 0 0 0 0 0 0 0 0 0 0 0 0 0 0.12 0"/>
<feBlend mode="normal" in2="effect1_dropShadow_2534_2401" result="effect2_dropShadow_2534_2401"/>
<feColorMatrix in="SourceAlpha" type="matrix" values="0 0 0 0 0 0 0 0 0 0 0 0 0 0 0 0 0 0 127 0" result="hardAlpha"/>
<feOffset dy="2"/>
<feGaussianBlur stdDeviation="2"/>
<feColorMatrix type="matrix" values="0 0 0 0 0 0 0 0 0 0 0 0 0 0 0 0 0 0 0.2 0"/>
<feBlend mode="normal" in2="effect2_dropShadow_2534_2401" result="effect3_dropShadow_2534_2401"/>
<feBlend mode="normal" in="SourceGraphic" in2="effect3_dropShadow_2534_2401" result="shape"/>
</filter>
</defs>
</svg>
