<svg width="124" height="28" viewBox="0 0 124 28" fill="none" xmlns="http://www.w3.org/2000/svg">
<g clip-path="url(#clip0_2605_1604)">
<path d="M79.1906 14.8862C79.1906 14.8862 78.5415 15.079 78.2635 14.7532C78.085 14.5483 77.7951 13.8669 78.2202 12.8842C78.7373 11.6899 79.4513 11.1625 80.3351 11.5935C81.2188 12.0245 81.6667 13.5212 82.0875 15.079C82.0875 15.079 83.5933 10.1842 86.1137 10.3327C88.6342 10.4812 88.0966 14.4552 88.2567 15.8944C88.2567 15.8944 89.531 12.8089 90.9502 11.1924C92.3695 9.576 93.0791 9.3234 93.9477 9.3234C94.8164 9.3234 95.9457 10.1831 95.8018 12.7646C95.658 15.346 95.6136 18.858 96.5699 21.322C96.5699 21.322 96.6716 21.4849 96.8165 21.7076C96.9615 21.9302 97.3379 23.2054 96.2659 23.8126C95.0187 24.5205 93.8471 23.1744 93.3701 20.5941C92.893 18.0138 92.7329 15.151 92.9374 13.3861C92.0024 14.6137 91.2453 15.9731 90.6895 17.4222C89.8349 19.7211 89.4152 20.9963 89.1253 21.897C88.8354 22.7977 88.2999 23.6187 87.2139 23.5921C86.0121 23.5589 85.681 22.287 85.5729 20.7149C85.4647 19.1428 85.4138 15.2717 85.3565 14.6779C84.8182 15.8864 84.3881 17.1423 84.0714 18.4304C83.55 20.552 83.391 21.2323 83.2742 21.8128C83.1573 22.3933 82.6078 23.2531 81.6515 23.2531C80.6953 23.2531 80.1739 22.3778 80.0873 21.4738C80.0008 20.5697 79.4945 16.3575 79.1906 14.8862Z" fill="white"/>
</g>
<path d="M14.1309 19.6602C14.1309 20.5 14.0039 21.1608 13.75 21.6426C13.5026 22.1243 13.1217 22.4759 12.6074 22.6973C12.0931 22.9186 11.4355 23.0586 10.6348 23.1172C9.84049 23.1823 8.89323 23.2148 7.79297 23.2148C6.53646 23.2148 5.46875 23.1497 4.58984 23.0195C3.71745 22.8958 3.01107 22.6387 2.4707 22.248C1.93685 21.8509 1.54622 21.2585 1.29883 20.4707C1.05794 19.6829 0.9375 18.6315 0.9375 17.3164C0.9375 16.0404 1.05469 15.0182 1.28906 14.25C1.52995 13.4818 1.91732 12.9023 2.45117 12.5117C2.98503 12.1211 3.6849 11.8607 4.55078 11.7305C5.42318 11.6003 6.48763 11.5352 7.74414 11.5352C9.18294 11.5352 10.3743 11.6361 11.3184 11.8379C12.2624 12.0397 12.9655 12.4238 13.4277 12.9902C13.8965 13.5566 14.1309 14.3867 14.1309 15.4805V17.8926H2.82227C2.82878 18.7259 2.88737 19.3932 2.99805 19.8945C3.10872 20.3958 3.33008 20.7734 3.66211 21.0273C3.99414 21.2812 4.48893 21.4505 5.14648 21.5352C5.81055 21.6133 6.69271 21.6523 7.79297 21.6523C8.78255 21.6523 9.58008 21.6328 10.1855 21.5938C10.7975 21.5547 11.2598 21.4701 11.5723 21.3398C11.8913 21.2031 12.1061 21.0013 12.2168 20.7344C12.3275 20.4674 12.3828 20.1094 12.3828 19.6602H14.1309ZM7.74414 13.0977C6.68294 13.0977 5.82682 13.1367 5.17578 13.2148C4.53125 13.293 4.03971 13.446 3.70117 13.6738C3.36263 13.8952 3.13151 14.2272 3.00781 14.6699C2.89062 15.1126 2.82878 15.6953 2.82227 16.418H12.334V15.4805C12.334 15.0117 12.2786 14.6243 12.168 14.3184C12.0638 14.0059 11.8555 13.7617 11.543 13.5859C11.2305 13.4036 10.7682 13.2767 10.1562 13.2051C9.55078 13.1335 8.74674 13.0977 7.74414 13.0977ZM15.3125 23L21.0742 17.2773L15.5859 11.75H18.0859L22.373 16.0957L26.5625 11.75H29.0625L23.5742 17.2676L29.3359 23H26.8359L22.3242 18.293L17.8125 23H15.3125ZM43.4668 19.6602C43.4668 20.5 43.3398 21.1608 43.0859 21.6426C42.8385 22.1243 42.4577 22.4759 41.9434 22.6973C41.429 22.9186 40.7715 23.0586 39.9707 23.1172C39.1764 23.1823 38.2292 23.2148 37.1289 23.2148C35.8724 23.2148 34.8047 23.1497 33.9258 23.0195C33.0534 22.8958 32.347 22.6387 31.8066 22.248C31.2728 21.8509 30.8822 21.2585 30.6348 20.4707C30.3939 19.6829 30.2734 18.6315 30.2734 17.3164C30.2734 16.0404 30.3906 15.0182 30.625 14.25C30.8659 13.4818 31.2533 12.9023 31.7871 12.5117C32.321 12.1211 33.0208 11.8607 33.8867 11.7305C34.7591 11.6003 35.8236 11.5352 37.0801 11.5352C38.5189 11.5352 39.7103 11.6361 40.6543 11.8379C41.5983 12.0397 42.3014 12.4238 42.7637 12.9902C43.2324 13.5566 43.4668 14.3867 43.4668 15.4805V17.8926H32.1582C32.1647 18.7259 32.2233 19.3932 32.334 19.8945C32.4447 20.3958 32.666 20.7734 32.998 21.0273C33.3301 21.2812 33.8249 21.4505 34.4824 21.5352C35.1465 21.6133 36.0286 21.6523 37.1289 21.6523C38.1185 21.6523 38.916 21.6328 39.5215 21.5938C40.1335 21.5547 40.5957 21.4701 40.9082 21.3398C41.2272 21.2031 41.4421 21.0013 41.5527 20.7344C41.6634 20.4674 41.7188 20.1094 41.7188 19.6602H43.4668ZM37.0801 13.0977C36.0189 13.0977 35.1628 13.1367 34.5117 13.2148C33.8672 13.293 33.3757 13.446 33.0371 13.6738C32.6986 13.8952 32.4674 14.2272 32.3438 14.6699C32.2266 15.1126 32.1647 15.6953 32.1582 16.418H41.6699V15.4805C41.6699 15.0117 41.6146 14.6243 41.5039 14.3184C41.3997 14.0059 41.1914 13.7617 40.8789 13.5859C40.5664 13.4036 40.1042 13.2767 39.4922 13.2051C38.8867 13.1335 38.0827 13.0977 37.0801 13.0977ZM58.7793 19.6602C58.7793 20.5 58.6523 21.1608 58.3984 21.6426C58.151 22.1243 57.7702 22.4759 57.2559 22.6973C56.7415 22.9186 56.084 23.0586 55.2832 23.1172C54.4889 23.1823 53.5417 23.2148 52.4414 23.2148C51.1849 23.2148 50.1172 23.1497 49.2383 23.0195C48.3659 22.8958 47.6595 22.6387 47.1191 22.248C46.5853 21.8509 46.1947 21.2585 45.9473 20.4707C45.7064 19.6829 45.5859 18.6315 45.5859 17.3164C45.5859 16.0404 45.7031 15.0182 45.9375 14.25C46.1784 13.4818 46.5658 12.9023 47.0996 12.5117C47.6335 12.1211 48.3333 11.8607 49.1992 11.7305C50.0716 11.6003 51.1361 11.5352 52.3926 11.5352C53.8314 11.5352 55.0228 11.6361 55.9668 11.8379C56.9108 12.0397 57.6139 12.4238 58.0762 12.9902C58.5449 13.5566 58.7793 14.3867 58.7793 15.4805V17.8926H47.4707C47.4772 18.7259 47.5358 19.3932 47.6465 19.8945C47.7572 20.3958 47.9785 20.7734 48.3105 21.0273C48.6426 21.2812 49.1374 21.4505 49.7949 21.5352C50.459 21.6133 51.3411 21.6523 52.4414 21.6523C53.431 21.6523 54.2285 21.6328 54.834 21.5938C55.446 21.5547 55.9082 21.4701 56.2207 21.3398C56.5397 21.2031 56.7546 21.0013 56.8652 20.7344C56.9759 20.4674 57.0312 20.1094 57.0312 19.6602H58.7793ZM52.3926 13.0977C51.3314 13.0977 50.4753 13.1367 49.8242 13.2148C49.1797 13.293 48.6882 13.446 48.3496 13.6738C48.0111 13.8952 47.7799 14.2272 47.6562 14.6699C47.5391 15.1126 47.4772 15.6953 47.4707 16.418H56.9824V15.4805C56.9824 15.0117 56.9271 14.6243 56.8164 14.3184C56.7122 14.0059 56.5039 13.7617 56.1914 13.5859C55.8789 13.4036 55.4167 13.2767 54.8047 13.2051C54.1992 13.1335 53.3952 13.0977 52.3926 13.0977ZM67.7832 23.2148C66.5267 23.2148 65.459 23.1497 64.5801 23.0195C63.7012 22.8958 62.9915 22.6387 62.4512 22.248C61.9108 21.8509 61.5169 21.2585 61.2695 20.4707C61.0221 19.6829 60.8984 18.6315 60.8984 17.3164C60.8984 16.0404 61.0221 15.0182 61.2695 14.25C61.5169 13.4818 61.9108 12.9023 62.4512 12.5117C62.9915 12.1211 63.7012 11.8607 64.5801 11.7305C65.459 11.6003 66.5267 11.5352 67.7832 11.5352C68.9876 11.5352 70.0033 11.6263 70.8301 11.8086C71.6634 11.9909 72.3177 12.3978 72.793 13.0293V8H74.668V23H72.793V21.7109C72.3177 22.349 71.6634 22.7591 70.8301 22.9414C70.0033 23.1237 68.9876 23.2148 67.7832 23.2148ZM72.793 17.3164C72.793 16.3854 72.7279 15.64 72.5977 15.0801C72.4674 14.5202 72.2266 14.1003 71.875 13.8203C71.5234 13.5339 71.0189 13.3418 70.3613 13.2441C69.7038 13.1465 68.8444 13.0977 67.7832 13.0977C66.6243 13.0977 65.7064 13.1465 65.0293 13.2441C64.3522 13.3418 63.8542 13.5339 63.5352 13.8203C63.2161 14.1003 63.0078 14.5202 62.9102 15.0801C62.819 15.64 62.7734 16.3854 62.7734 17.3164C62.7734 18.2799 62.819 19.0514 62.9102 19.6309C63.0078 20.2103 63.2161 20.6465 63.5352 20.9395C63.8542 21.2259 64.3522 21.418 65.0293 21.5156C65.7064 21.6068 66.6243 21.6523 67.7832 21.6523C68.8444 21.6523 69.7038 21.6068 70.3613 21.5156C71.0189 21.418 71.5234 21.2259 71.875 20.9395C72.2266 20.6465 72.4674 20.2103 72.5977 19.6309C72.7279 19.0514 72.793 18.2799 72.793 17.3164ZM105.879 23.2148C104.531 23.2148 103.418 23.1432 102.539 23C101.667 22.8633 101.016 22.5573 100.586 22.082C100.163 21.6068 99.9512 20.8678 99.9512 19.8652C99.9512 18.8431 100.15 18.0944 100.547 17.6191C100.951 17.1374 101.585 16.8249 102.451 16.6816C103.324 16.5384 104.466 16.4668 105.879 16.4668C107.025 16.4668 107.985 16.4928 108.76 16.5449C109.535 16.597 110.228 16.6882 110.84 16.8184C110.827 15.9525 110.768 15.2721 110.664 14.7773C110.56 14.276 110.365 13.9049 110.078 13.6641C109.792 13.4232 109.372 13.2702 108.818 13.2051C108.271 13.1335 107.542 13.0977 106.631 13.0977C105.589 13.0977 104.772 13.1204 104.18 13.166C103.594 13.2116 103.167 13.293 102.9 13.4102C102.633 13.5273 102.464 13.6966 102.393 13.918C102.327 14.1393 102.295 14.4258 102.295 14.7773H100.42C100.42 14.0742 100.514 13.5078 100.703 13.0781C100.898 12.6484 101.227 12.3229 101.689 12.1016C102.152 11.8802 102.783 11.7305 103.584 11.6523C104.391 11.5742 105.407 11.5352 106.631 11.5352C107.946 11.5352 109.004 11.6198 109.805 11.7891C110.612 11.9583 111.224 12.2643 111.641 12.707C112.064 13.1432 112.347 13.7552 112.49 14.543C112.64 15.3307 112.715 16.3464 112.715 17.5898V23H110.84V22.2285C110.618 22.4629 110.312 22.6517 109.922 22.7949C109.531 22.9382 109.01 23.0423 108.359 23.1074C107.715 23.179 106.888 23.2148 105.879 23.2148ZM105.879 21.6914C106.992 21.6914 107.881 21.6784 108.545 21.6523C109.209 21.6263 109.704 21.5547 110.029 21.4375C110.361 21.3203 110.579 21.1315 110.684 20.8711C110.788 20.6107 110.84 20.2461 110.84 19.7773V18.0488L105.879 17.9902C105 17.9772 104.29 17.9902 103.75 18.0293C103.216 18.0618 102.809 18.14 102.529 18.2637C102.249 18.3809 102.061 18.5697 101.963 18.8301C101.872 19.084 101.826 19.429 101.826 19.8652C101.826 20.2884 101.872 20.6237 101.963 20.8711C102.061 21.1185 102.249 21.3008 102.529 21.418C102.809 21.5352 103.216 21.61 103.75 21.6426C104.29 21.6751 105 21.6914 105.879 21.6914ZM115.176 23V12.375H117.051V23H115.176ZM115.176 9.875V8H117.051V9.875H115.176ZM120.176 23V8H122.051V23H120.176Z" fill="white"/>
<defs>
<clipPath id="clip0_2605_1604">
<rect width="15" height="19" fill="white" transform="translate(78 24) rotate(-90)"/>
</clipPath>
</defs>
</svg>
