<svg width="38" height="11" viewBox="0 0 38 11" fill="none" xmlns="http://www.w3.org/2000/svg">
<path d="M36.423 11C36.6299 11.0002 36.8348 10.9609 37.026 10.8845C37.2172 10.808 37.391 10.6958 37.5375 10.5544C37.6839 10.4129 37.8001 10.2448 37.8795 10.0599C37.9588 9.8749 37.9998 9.6766 38 9.47631C38.0002 9.27601 37.9597 9.07764 37.8807 8.89252C37.8017 8.70739 37.6858 8.53914 37.5397 8.39736C37.3935 8.25559 37.22 8.14308 37.0289 8.06624C36.8379 7.98941 36.6331 7.94975 36.4262 7.94955C36.0083 7.94915 35.6075 8.10945 35.3117 8.3952C35.016 8.68094 34.8496 9.06873 34.8492 9.47324C34.8487 9.87776 35.0143 10.2659 35.3095 10.5522C35.6046 10.8385 36.0052 10.9996 36.423 11ZM34.846 5.32065H33.5002C32.6357 5.32065 32.1702 5.94914 32.1702 6.99457V10.7747H29.621V5.32065H28.538C27.6719 5.32065 27.208 5.94914 27.208 6.99457V10.7747H24.6588V3.30337H27.208V4.43771C27.626 3.55783 28.1992 3.30337 29.0494 3.30337H32.1717V4.43771C32.5897 3.55783 33.1613 3.30337 34.0116 3.30337H34.846V5.32065ZM24.1015 7.62152H18.7831C18.9224 8.45847 19.4639 8.93673 20.3759 8.93673C21.0568 8.93673 21.5349 8.66848 21.6901 8.19022L23.9463 8.80337C23.3906 10.1033 22.0147 10.8942 20.3759 10.8942C17.6083 10.8942 16.34 8.81717 16.34 7.03902C16.34 5.29153 17.4531 3.19914 20.2192 3.19914C23.1578 3.19914 24.1316 5.32065 24.1316 6.89033C24.1316 7.23369 24.1157 7.4575 24.0999 7.62152H24.1015ZM21.6283 6.17294C21.565 5.52912 21.0868 4.9313 20.2207 4.9313C19.4164 4.9313 18.9382 5.2762 18.7831 6.17294H21.6283ZM11.8877 10.7731H14.1297L16.9274 3.30184H14.3624L13.0008 7.65064L11.6106 3.30184H9.05667L11.8877 10.7731ZM1.43767 10.7731H3.97417V5.31912H6.38717V10.7731H8.90625V3.30184H3.97417V2.83891C3.97417 2.32999 4.34625 2.01728 4.93367 2.01728H6.38717V0H4.5125C2.67267 0 1.43608 1.09142 1.43608 2.69022V3.30337H0V5.32065H1.43767V10.7747V10.7731Z" fill="#37FE19"/>
</svg>
