<svg width="80" height="31" viewBox="0 0 80 31" fill="none" xmlns="http://www.w3.org/2000/svg">
<g clip-path="url(#clip0_2333_1491)">
<path d="M30.5547 15.5001C30.5547 7.24546 23.839 0.553711 15.5547 0.553711C7.27042 0.553711 0.554688 7.24546 0.554688 15.5001C0.554688 23.7548 7.27042 30.4466 15.5547 30.4466C23.839 30.4466 30.5547 23.7548 30.5547 15.5001Z" fill="#FAFAFA"/>
<path d="M30.5547 15.5001C30.5547 7.24545 23.839 0.553711 15.5547 0.553711C7.27042 0.553711 0.554688 7.24545 0.554688 15.5001C0.554688 23.7548 7.27042 30.4466 15.5547 30.4466C23.839 30.4466 30.5547 23.7548 30.5547 15.5001Z" stroke="#2B2B2B" stroke-width="2"/>
<path d="M55 15.5001C55 7.24545 48.2843 0.553711 40 0.553711C31.7157 0.553711 25 7.24545 25 15.5001C25 23.7548 31.7157 30.4466 40 30.4466C48.2843 30.4466 55 23.7548 55 15.5001Z" fill="#FAFAFA"/>
<path d="M19.7864 10.1426L15.2961 13.6469L10.7031 10.1426V10.1435L10.7087 10.1483V15.0553L15.2444 18.6353L19.7864 15.1935V10.1426Z" fill="#EA4335"/>
<path d="M20.9683 9.28979L19.7891 10.1422V15.1931L23.4997 12.3442V10.6281C23.4997 10.6281 23.0493 8.17693 20.9683 9.28979Z" fill="#FBBC05"/>
<path d="M19.7891 15.1936V21.7448H22.6331C22.6331 21.7448 23.4424 21.6615 23.5006 20.739V12.3447L19.7891 15.1936Z" fill="#34A853"/>
<path d="M10.7089 21.7497V15.0545L10.7031 15.0498L10.7089 21.7497Z" fill="#C5221F"/>
<path d="M10.7051 10.1434L9.53235 9.29573C7.45134 8.18288 7 10.6331 7 10.6331V12.3492L10.7051 15.0504V10.1434Z" fill="#C5221F"/>
<path d="M10.7031 10.1436V15.0506L10.7089 15.0553V10.1483L10.7031 10.1436Z" fill="#C5221F"/>
<path d="M7 12.3506V20.7448C7.05734 21.6683 7.86755 21.7507 7.86755 21.7507H10.7116L10.7051 15.0508L7 12.3506Z" fill="#4285F4"/>
<path d="M45.75 8H36.75C36.1287 8 35.625 8.50368 35.625 9.125V22.625C35.625 23.2463 36.1287 23.75 36.75 23.75H45.75C46.3713 23.75 46.875 23.2463 46.875 22.625V9.125C46.875 8.50368 46.3713 8 45.75 8Z" fill="#1066B5"/>
<path d="M45.75 8H36.75C36.1287 8 35.625 8.50368 35.625 9.125V22.625C35.625 23.2463 36.1287 23.75 36.75 23.75H45.75C46.3713 23.75 46.875 23.2463 46.875 22.625V9.125C46.875 8.50368 46.3713 8 45.75 8Z" fill="url(#paint0_linear_2333_1491)"/>
<path d="M41.25 9.6875H35.625V15.3125H41.25V9.6875Z" fill="#32A9E7"/>
<path d="M41.25 15.3125H35.625V20.9375H41.25V15.3125Z" fill="#167EB4"/>
<path d="M46.875 15.3125H41.25V20.9375H46.875V15.3125Z" fill="#32A9E7"/>
<path d="M46.875 9.6875H41.25V15.3125H46.875V9.6875Z" fill="#58D9FD"/>
<mask id="mask0_2333_1491" style="mask-type:alpha" maskUnits="userSpaceOnUse" x="34" y="14" width="14" height="10">
<path d="M34.5 14.75H46.875C47.4963 14.75 48 15.2537 48 15.875V22.625C48 23.2463 47.4963 23.75 46.875 23.75H35.625C35.0037 23.75 34.5 23.2463 34.5 22.625V14.75Z" fill="url(#paint1_linear_2333_1491)"/>
</mask>
<g mask="url(#mask0_2333_1491)">
<path d="M48 14.75V17H46.875V14.75H48Z" fill="#135298"/>
<path d="M48 23.75V15.875L33.9375 23.75H48Z" fill="url(#paint2_linear_2333_1491)"/>
<path d="M34.5 23.75V15.875L48.5625 23.75H34.5Z" fill="url(#paint3_linear_2333_1491)"/>
</g>
<path d="M34.5 13.625C34.5 12.693 35.2555 11.9375 36.1875 11.9375H39.5625C40.4945 11.9375 41.25 12.693 41.25 13.625V20.375C41.25 21.307 40.4945 22.0625 39.5625 22.0625H34.5V13.625Z" fill="black" fill-opacity="0.3"/>
<path d="M39 10.8125H31.125C30.5037 10.8125 30 11.3162 30 11.9375V19.8125C30 20.4338 30.5037 20.9375 31.125 20.9375H39C39.6213 20.9375 40.125 20.4338 40.125 19.8125V11.9375C40.125 11.3162 39.6213 10.8125 39 10.8125Z" fill="url(#paint4_linear_2333_1491)"/>
<path d="M37.875 15.914V15.8204C37.875 14.2 36.709 13.0625 35.0714 13.0625C33.4248 13.0625 32.25 14.2078 32.25 15.836V15.9296C32.25 17.55 33.4159 18.6875 35.0625 18.6875C36.7002 18.6875 37.875 17.5422 37.875 15.914ZM36.5488 15.9296C36.5488 17.0047 35.9437 17.6513 35.0714 17.6513C34.1992 17.6513 33.585 16.9891 33.585 15.914V15.8204C33.585 14.7453 34.1903 14.0987 35.0625 14.0987C35.9258 14.0987 36.5488 14.7609 36.5488 15.836V15.9296Z" fill="white"/>
<path d="M55 15.5001C55 7.24545 48.2843 0.553711 40 0.553711C31.7157 0.553711 25 7.24545 25 15.5001C25 23.7548 31.7157 30.4466 40 30.4466C48.2843 30.4466 55 23.7548 55 15.5001Z" stroke="#2B2B2B" stroke-width="2"/>
<path d="M79.4453 15.5001C79.4453 7.24545 72.7296 0.553711 64.4453 0.553711C56.161 0.553711 49.4453 7.24545 49.4453 15.5001C49.4453 23.7548 56.161 30.4466 64.4453 30.4466C72.7296 30.4466 79.4453 23.7548 79.4453 15.5001Z" fill="#FAFAFA"/>
<path d="M79.4453 15.5001C79.4453 7.24545 72.7296 0.553711 64.4453 0.553711C56.161 0.553711 49.4453 7.24545 49.4453 15.5001C49.4453 23.7548 56.161 30.4466 64.4453 30.4466C72.7296 30.4466 79.4453 23.7548 79.4453 15.5001Z" stroke="#2B2B2B" stroke-width="2"/>
<path d="M64.5 5C58.7086 5 54 9.70859 54 15.5C54 21.2914 58.7086 26 64.5 26C70.2914 26 75 21.2914 75 15.5C75 9.70859 70.2914 5 64.5 5Z" fill="#FDDD4C"/>
<path d="M59.898 18.2372C59.6684 17.8895 60.2459 17.3635 60.011 16.9217C59.8756 16.667 59.6543 16.5083 59.3885 16.475C59.1334 16.4429 58.8707 16.5363 58.7032 16.7188C58.4387 17.0066 58.3976 17.3983 58.4488 17.5369C58.4675 17.5877 58.4969 17.6015 58.518 17.6045C58.662 17.6235 58.743 17.2538 58.7928 17.1768C58.9303 16.9646 59.2424 16.9004 59.458 17.0399C59.8669 17.3043 59.5124 17.7317 59.543 18.0926C59.5727 18.444 59.7917 18.5853 59.9883 18.6002C60.1795 18.6074 60.3132 18.5012 60.347 18.4236C60.4279 18.2384 60.0869 18.5231 59.898 18.2372Z" fill="black"/>
<path d="M68.4448 15.0473C68.3375 15.0325 68.2204 15.0328 68.0984 15.0473C68.0059 14.9305 67.9229 14.7414 67.8761 14.5206C67.7929 14.1279 67.8016 13.8435 68.0339 13.8065C68.2663 13.7696 68.3786 14.0072 68.4618 14.3999C68.5177 14.6639 68.507 14.9064 68.4448 15.0473Z" fill="black"/>
<path d="M65.9007 15.281C65.9099 15.3698 65.9131 15.4598 65.9105 15.5427C66.1354 15.5559 66.2946 15.6626 66.337 15.7304C66.3587 15.7654 66.35 15.7882 66.343 15.7987C66.3197 15.8349 66.2698 15.8294 66.1654 15.8176C66.0741 15.8074 65.9758 15.7984 65.8737 15.803C65.8181 15.9735 65.6533 15.9895 65.5375 15.8634C65.4567 15.888 65.2978 15.9895 65.2504 15.8792C65.2501 15.8246 65.3073 15.745 65.4109 15.6748C65.3401 15.5399 65.2927 15.3955 65.2648 15.2459C65.1179 15.2724 64.9858 15.3135 64.8822 15.3458C64.8336 15.3609 64.6412 15.4478 64.6186 15.3499C64.6036 15.2822 64.7089 15.1707 64.8202 15.0902C64.9446 15.0019 65.0826 14.9391 65.2257 14.9029C65.2226 14.6899 65.2769 14.5412 65.4317 14.5166C65.6236 14.4861 65.7425 14.6339 65.8248 14.9074C66.0567 14.9718 66.2883 15.1316 66.3905 15.2967C66.4303 15.3608 66.438 15.4103 66.4122 15.4364C66.3479 15.503 65.9919 15.3098 65.9007 15.281Z" fill="black"/>
<path d="M67.4219 16.2383C67.569 16.3096 67.7308 16.2815 67.7836 16.1756C67.8364 16.0696 67.76 15.9261 67.6128 15.8548C67.4657 15.7836 67.304 15.8116 67.2511 15.9175C67.1983 16.0234 67.2748 16.167 67.4219 16.2383Z" fill="black"/>
<path d="M68.1485 15.7113C68.1511 15.5493 68.2504 15.4199 68.3698 15.4219C68.4891 15.4242 68.5837 15.5569 68.5811 15.7186C68.5784 15.8803 68.4791 16.0097 68.3598 16.0076C68.2404 16.0057 68.1458 15.873 68.1485 15.7113Z" fill="black"/>
<path fill-rule="evenodd" clip-rule="evenodd" d="M71.3839 17.6961C71.3862 17.7044 71.3829 17.6927 71.3839 17.6961C71.6236 17.6961 72 17.968 72 18.625C72 19.2788 71.7252 20.0193 71.6603 20.1837C70.6705 22.5253 68.3079 23.8288 65.4936 23.7463C62.87 23.6694 60.6324 22.3029 59.6532 20.0751C59.0612 20.0757 58.4507 19.8186 57.9867 19.4127C57.4976 18.9851 57.196 18.4317 57.1372 17.8545C57.0914 17.4051 57.1472 16.9869 57.29 16.6223L56.74 16.1622C54.2233 14.0648 62.0947 5.42874 64.6121 7.59617C64.6247 7.60706 65.4686 8.42413 65.4706 8.42611C66.6844 7.91739 69.9367 6.9488 69.9403 9.20359C69.9416 9.95236 69.4583 10.8255 68.6837 11.6178C69.5789 12.4373 69.3428 13.6014 69.4853 14.6694L69.7962 14.7545C70.3889 14.9185 70.8105 15.1373 71.0168 15.3511C71.2231 15.5646 71.3254 15.7716 71.3625 16.0141C71.3972 16.2098 71.3926 16.5553 71.1311 16.9417C71.2253 17.191 71.3112 17.4396 71.3839 17.6961ZM59.6088 19.4676C59.6967 19.4695 59.7839 19.4639 59.8695 19.4494C60.7892 19.2946 61.0299 18.3086 60.8785 17.3403C60.7073 16.2471 59.9581 15.8616 59.4496 15.8343C59.3082 15.827 59.1768 15.8395 59.0685 15.861C58.1609 16.0415 57.6484 16.8038 57.7493 17.7938C57.8406 18.6897 58.7586 19.4451 59.6088 19.4676ZM57.5531 16.1296C57.8576 15.693 58.3554 15.3772 58.9204 15.2686C59.6395 13.3632 60.8404 11.6076 62.4297 10.3995C63.6092 9.42832 64.8812 8.73169 64.8812 8.73169C64.8812 8.73169 64.1962 7.94762 63.9893 7.88987C62.7165 7.55063 59.9678 9.42172 58.2127 11.8941C57.5026 12.8943 56.486 14.6657 56.972 15.5769C57.0319 15.6897 57.3712 15.9798 57.5531 16.1296ZM67.8716 19.0299C67.8736 19.0504 67.8609 19.0716 67.8425 19.0791C67.8425 19.0791 66.8198 19.5487 65.1954 19.0527C65.2538 19.5396 65.8443 19.7241 66.2569 19.791C68.2697 20.1328 70.1516 18.9967 70.5752 18.7105C70.6479 18.6614 70.5743 18.7877 70.5611 18.8062C70.0426 19.4665 68.6486 20.2311 66.8349 20.2308C66.0439 20.2305 65.2533 19.9556 64.9631 19.5329C64.5128 18.8772 64.9407 17.9199 65.6912 18.0195C66.9599 18.1609 68.2604 18.0547 69.4349 17.5166C70.4588 17.0473 70.8456 16.5312 70.7875 16.1131C70.6973 15.4651 69.7366 15.3638 69.251 15.2063C69.0397 15.1373 68.9354 15.0822 68.9117 14.6898C68.9013 14.5185 68.8712 13.9209 68.8601 13.6737C68.8408 13.2411 68.7879 12.6495 68.4162 12.4053C68.3192 12.3415 68.2116 12.3108 68.0983 12.3049C68.0079 12.3006 67.9543 12.313 67.9255 12.3197C67.919 12.3212 67.9138 12.3224 67.9097 12.3231C67.709 12.3567 67.586 12.4583 67.4409 12.5781C67.4326 12.585 67.4241 12.5919 67.4156 12.5989C66.9519 12.9804 66.5604 13.0428 66.1248 13.0243C65.9891 13.0186 65.8493 13.0051 65.7018 12.9908C65.5661 12.9777 65.424 12.9639 65.2727 12.955L65.0878 12.9444C64.3583 12.9075 63.576 13.5292 63.446 14.4123C63.3007 15.398 63.8516 16.0017 64.2099 16.3944C64.2985 16.4914 64.3753 16.5755 64.4269 16.6494C64.46 16.6939 64.4984 16.7566 64.4984 16.8163C64.4984 16.8876 64.4516 16.944 64.4058 16.9922C63.6616 17.7476 63.4236 18.9478 63.7041 19.948C63.7392 20.0727 63.7836 20.1922 63.8361 20.3064C64.4941 21.8241 66.5354 22.531 68.5292 21.8881C69.9266 21.4375 71.1612 20.3487 71.4126 18.8468C71.4725 18.4554 71.3846 18.3043 71.2649 18.2313C71.1382 18.1545 70.9864 18.1812 70.9864 18.1812C70.9864 18.1812 70.9172 17.7136 70.7213 17.2886C70.1399 17.7413 69.3917 18.0595 68.822 18.2208C67.9094 18.4793 66.9234 18.5799 65.9803 18.458C65.5977 18.4086 65.3407 18.3753 65.2305 18.7287C66.4886 19.1834 67.8201 18.9887 67.8201 18.9887C67.8458 18.9861 67.8689 19.0045 67.8716 19.0299ZM64.242 10.2055C63.554 10.553 62.7857 11.1717 62.1619 11.8835C62.1398 11.9089 62.1726 11.9439 62.1997 11.9244C62.7386 11.5374 63.4774 11.1777 64.4453 10.9447C65.5294 10.6836 66.5732 10.7932 67.2107 10.9374C67.2428 10.9447 67.2628 10.8902 67.2344 10.8744C66.8132 10.6411 66.1666 10.4827 65.708 10.4794C65.6855 10.479 65.6729 10.4533 65.6862 10.4355C65.7654 10.3302 65.8741 10.2263 65.9734 10.151C65.9954 10.1339 65.9821 10.0986 65.954 10.1002C65.3834 10.1348 64.0802 10.729 64.0849 10.7074C64.1183 10.549 64.2236 10.3398 64.2781 10.2421C64.2911 10.219 64.2657 10.1936 64.242 10.2055Z" fill="black"/>
</g>
<defs>
<linearGradient id="paint0_linear_2333_1491" x1="35.625" y1="15.875" x2="46.875" y2="15.875" gradientUnits="userSpaceOnUse">
<stop stop-color="#064484"/>
<stop offset="1" stop-color="#0F65B5"/>
</linearGradient>
<linearGradient id="paint1_linear_2333_1491" x1="34.5" y1="21.9327" x2="48" y2="21.9327" gradientUnits="userSpaceOnUse">
<stop stop-color="#1B366F"/>
<stop offset="1" stop-color="#2657B0"/>
</linearGradient>
<linearGradient id="paint2_linear_2333_1491" x1="48" y1="19.8125" x2="34.5" y2="19.8125" gradientUnits="userSpaceOnUse">
<stop stop-color="#44DCFD"/>
<stop offset="0.453125" stop-color="#259ED0"/>
</linearGradient>
<linearGradient id="paint3_linear_2333_1491" x1="34.5" y1="19.8125" x2="48" y2="19.8125" gradientUnits="userSpaceOnUse">
<stop stop-color="#259ED0"/>
<stop offset="1" stop-color="#44DCFD"/>
</linearGradient>
<linearGradient id="paint4_linear_2333_1491" x1="30" y1="15.875" x2="40.125" y2="15.875" gradientUnits="userSpaceOnUse">
<stop stop-color="#064484"/>
<stop offset="1" stop-color="#0F65B5"/>
</linearGradient>
<clipPath id="clip0_2333_1491">
<rect width="80" height="31" fill="white"/>
</clipPath>
</defs>
</svg>
