<svg width="15" height="15" viewBox="0 0 15 15" fill="none" xmlns="http://www.w3.org/2000/svg">
<path d="M14.3767 5.3129V0.858898C14.3767 0.380998 13.989 0 13.5182 0H9.06618C8.36688 0 7.67458 0.138499 7.03068 0.401699C6.38678 0.671899 5.79827 1.0598 5.30667 1.5585L5.27208 1.5932C4.62118 2.2512 4.15737 3.0686 3.92188 3.9691C4.34427 3.8583 4.78047 3.8029 5.21667 3.7959C6.37977 3.7821 7.52228 4.1561 8.44998 4.8558C9.28778 5.4792 9.92478 6.3381 10.271 7.3287C10.631 8.3331 10.6725 9.4275 10.4025 10.4596C11.2957 10.2241 12.1196 9.76 12.7774 9.1089L12.812 9.0743C13.3036 8.5824 13.6982 7.9937 13.9682 7.3494C14.2382 6.7052 14.3698 6.0125 14.3698 5.3129H14.3767Z" fill="#18E299"/>
<path d="M3.78613 5.23845C3.79303 3.87215 4.33793 2.56095 5.29673 1.58105L1.59273 5.28675C1.57893 5.30055 1.56513 5.30745 1.55133 5.32125C0.647726 6.21835 0.102826 7.41915 0.0131257 8.68885C-0.0696743 9.87585 0.240727 11.049 0.902927 12.0289C0.966127 12.1224 1.13743 12.1531 1.23403 12.0634L3.50333 9.79996C4.21383 9.08916 4.43453 8.03325 4.09653 7.08785C3.88273 6.50135 3.77923 5.87335 3.78613 5.23845Z" fill="#18E299"/>
<path d="M12.7914 9.07422C12.081 9.77122 11.1912 10.2543 10.2255 10.4682C9.25301 10.6821 8.24591 10.62 7.30781 10.2888C7.30781 10.2888 7.30091 10.2888 7.29401 10.2888C6.34911 9.95062 5.29371 10.1715 4.58331 10.8753L2.31391 13.1388C2.21741 13.2354 2.23121 13.3941 2.34841 13.4701C3.32791 14.1256 4.50051 14.4431 5.68691 14.3603C6.95611 14.2706 8.14931 13.7254 9.05291 12.8214L9.08741 12.7869L12.7914 9.08112V9.07422Z" fill="#18E299"/>
</svg>
