<svg width="80" height="31" viewBox="0 0 80 31" fill="none" xmlns="http://www.w3.org/2000/svg">
<g clip-path="url(#clip0_2290_1843)">
<path d="M30.5547 15.5001C30.5547 7.24545 23.839 0.553711 15.5547 0.553711C7.27042 0.553711 0.554688 7.24545 0.554688 15.5001C0.554688 23.7548 7.27042 30.4466 15.5547 30.4466C23.839 30.4466 30.5547 23.7548 30.5547 15.5001Z" fill="#FAFAFA"/>
<path d="M30.5547 15.5001C30.5547 7.24545 23.839 0.553711 15.5547 0.553711C7.27042 0.553711 0.554688 7.24545 0.554688 15.5001C0.554688 23.7548 7.27042 30.4466 15.5547 30.4466C23.839 30.4466 30.5547 23.7548 30.5547 15.5001Z" stroke="#2B2B2B" stroke-width="2"/>
<path d="M13.0547 23.5271C14.4354 23.5271 15.5547 22.4118 15.5547 21.036V18.5449H13.0547C11.674 18.5449 10.5547 19.6602 10.5547 21.036C10.5547 22.4118 11.674 23.5271 13.0547 23.5271Z" fill="#0ACF83"/>
<path d="M10.5547 16.0536C10.5547 14.6778 11.674 13.5625 13.0547 13.5625H15.5547V18.5446H13.0547C11.674 18.5446 10.5547 17.4294 10.5547 16.0536Z" fill="#A259FF"/>
<path d="M10.5547 11.0711C10.5547 9.69536 11.674 8.58008 13.0547 8.58008H15.5547V13.5622H13.0547C11.674 13.5622 10.5547 12.4469 10.5547 11.0711Z" fill="#F24E1E"/>
<path d="M15.5547 8.58008H18.0547C19.4354 8.58008 20.5547 9.69536 20.5547 11.0711C20.5547 12.4469 19.4354 13.5622 18.0547 13.5622H15.5547V8.58008Z" fill="#FF7262"/>
<path d="M20.5547 16.0536C20.5547 17.4294 19.4354 18.5446 18.0547 18.5446C16.674 18.5446 15.5547 17.4294 15.5547 16.0536C15.5547 14.6778 16.674 13.5625 18.0547 13.5625C19.4354 13.5625 20.5547 14.6778 20.5547 16.0536Z" fill="#1ABCFE"/>
<path d="M55 15.5001C55 7.24545 48.2843 0.553711 40 0.553711C31.7157 0.553711 25 7.24545 25 15.5001C25 23.7548 31.7157 30.4466 40 30.4466C48.2843 30.4466 55 23.7548 55 15.5001Z" fill="#FAFAFA"/>
<path d="M55 15.5001C55 7.24545 48.2843 0.553711 40 0.553711C31.7157 0.553711 25 7.24545 25 15.5001C25 23.7548 31.7157 30.4466 40 30.4466C48.2843 30.4466 55 23.7548 55 15.5001Z" stroke="#2B2B2B" stroke-width="2"/>
<mask id="mask0_2290_1843" style="mask-type:luminance" maskUnits="userSpaceOnUse" x="32" y="10" width="17" height="11">
<path d="M48.8854 10.5176H32.2188V20.4819H48.8854V10.5176Z" fill="white"/>
</mask>
<g mask="url(#mask0_2290_1843)">
<path fill-rule="evenodd" clip-rule="evenodd" d="M48.8854 10.5176L43.5673 20.4819H38.572L40.7977 16.3523H40.6978C38.8617 18.6365 36.1221 20.1404 32.2188 20.4819V16.4094C32.2188 16.4094 34.7158 16.268 36.1839 14.7888H32.2188V10.5178H36.675V14.0306L36.775 14.0302L38.596 10.5178H41.9663V14.0084L42.0663 14.0082L43.9556 10.5176H48.8854Z" fill="#146EF5"/>
</g>
<path d="M79.4453 15.5001C79.4453 7.24545 72.7296 0.553711 64.4453 0.553711C56.161 0.553711 49.4453 7.24545 49.4453 15.5001C49.4453 23.7548 56.161 30.4466 64.4453 30.4466C72.7296 30.4466 79.4453 23.7548 79.4453 15.5001Z" fill="#FAFAFA"/>
<path d="M79.4453 15.5001C79.4453 7.24545 72.7296 0.553711 64.4453 0.553711C56.161 0.553711 49.4453 7.24545 49.4453 15.5001C49.4453 23.7548 56.161 30.4466 64.4453 30.4466C72.7296 30.4466 79.4453 23.7548 79.4453 15.5001Z" stroke="#2B2B2B" stroke-width="2"/>
<mask id="mask1_2290_1843" style="mask-type:luminance" maskUnits="userSpaceOnUse" x="59" y="8" width="11" height="16">
<path d="M69.4453 8.85742H59.4453V23.2503H69.4453V8.85742Z" fill="white"/>
</mask>
<g mask="url(#mask1_2290_1843)">
<path d="M70.0017 8.30371V13.4704H64.4462L58.8906 8.30371H70.0017ZM58.8906 13.4704H64.4462L70.0017 18.6371H64.4462V23.8037L58.8906 18.6371V13.4704Z" fill="#2A2A2A"/>
</g>
</g>
<defs>
<clipPath id="clip0_2290_1843">
<rect width="80" height="31" fill="white"/>
</clipPath>
</defs>
</svg>
