<svg width="115" height="26" viewBox="0 0 115 26" fill="none" xmlns="http://www.w3.org/2000/svg">
<path d="M14.3767 11.602V7.14796C14.3767 6.67006 13.989 6.28906 13.5182 6.28906H9.06618C8.36688 6.28906 7.67458 6.42756 7.03068 6.69076C6.38678 6.96096 5.79827 7.34886 5.30667 7.84756L5.27208 7.88226C4.62118 8.54026 4.15737 9.35766 3.92188 10.2582C4.34427 10.1474 4.78047 10.092 5.21667 10.085C6.37977 10.0712 7.52228 10.4452 8.44998 11.1449C9.28778 11.7683 9.92478 12.6272 10.271 13.6178C10.631 14.6222 10.6725 15.7166 10.4025 16.7487C11.2957 16.5132 12.1196 16.0491 12.7774 15.398L12.812 15.3634C13.3036 14.8715 13.6982 14.2828 13.9682 13.6385C14.2382 12.9943 14.3698 12.3016 14.3698 11.602H14.3767Z" fill="#18E299"/>
<path d="M3.78613 11.5275C3.79303 10.1612 4.33793 8.85002 5.29673 7.87012L1.59273 11.5758C1.57893 11.5896 1.56513 11.5965 1.55133 11.6103C0.647726 12.5074 0.102826 13.7082 0.0131257 14.9779C-0.0696743 16.1649 0.240727 17.338 0.902927 18.3179C0.966127 18.4114 1.13743 18.4421 1.23403 18.3524L3.50333 16.089C4.21383 15.3782 4.43453 14.3223 4.09653 13.3769C3.88273 12.7904 3.77923 12.1624 3.78613 11.5275Z" fill="#18E299"/>
<path d="M12.7914 15.3633C12.081 16.0603 11.1912 16.5434 10.2255 16.7573C9.25301 16.9712 8.24591 16.9091 7.30781 16.5779C7.30781 16.5779 7.30091 16.5779 7.29401 16.5779C6.34911 16.2397 5.29371 16.4606 4.58331 17.1644L2.31391 19.4279C2.21741 19.5245 2.23121 19.6832 2.34841 19.7592C3.32791 20.4147 4.50051 20.7322 5.68691 20.6494C6.95611 20.5597 8.14931 20.0145 9.05291 19.1105L9.08741 19.076L12.7914 15.3702V15.3633Z" fill="#18E299"/>
<path d="M35.5426 20.384V21H29.5146V20.384L30.7246 20.23C30.9592 20.2007 31.0986 20.142 31.1426 20.054C31.1866 19.9513 31.2086 19.6507 31.2086 19.152V13.828H25.4226V19.152C25.4226 19.6507 25.4446 19.9513 25.4886 20.054C25.5326 20.142 25.6719 20.2007 25.9066 20.23L27.1166 20.384V21H21.0886V20.384L22.2986 20.23C22.5332 20.2007 22.6726 20.142 22.7166 20.054C22.7606 19.9513 22.7826 19.6507 22.7826 19.152V7.888C22.7826 7.38933 22.7606 7.096 22.7166 7.008C22.6726 6.90533 22.5332 6.83933 22.2986 6.81L21.0886 6.656V6.04H27.1166V6.656L25.9066 6.81C25.6719 6.83933 25.5326 6.90533 25.4886 7.008C25.4446 7.096 25.4226 7.38933 25.4226 7.888V13.058H31.2086V7.888C31.2086 7.38933 31.1866 7.096 31.1426 7.008C31.0986 6.90533 30.9592 6.83933 30.7246 6.81L29.5146 6.656V6.04H35.5426V6.656L34.3326 6.81C34.0979 6.83933 33.9586 6.90533 33.9146 7.008C33.8706 7.096 33.8486 7.38933 33.8486 7.888V19.152C33.8486 19.6507 33.8706 19.9513 33.9146 20.054C33.9586 20.142 34.0979 20.2007 34.3326 20.23L35.5426 20.384ZM36.7562 6.04H48.8562V9.824H48.2402L47.5362 7.382C47.4922 7.19133 47.4409 7.05933 47.3822 6.986C47.3382 6.898 47.2429 6.84667 47.0962 6.832C46.9495 6.81733 46.7002 6.81 46.3482 6.81H44.1262V19.152C44.1262 19.6507 44.1482 19.9513 44.1922 20.054C44.2362 20.142 44.3755 20.2007 44.6102 20.23L45.8202 20.384V21H39.7922V20.384L41.0022 20.23C41.2369 20.2007 41.3762 20.142 41.4202 20.054C41.4642 19.9513 41.4862 19.6507 41.4862 19.152V6.81H39.2642C38.9269 6.81 38.6775 6.81733 38.5162 6.832C38.3695 6.84667 38.2742 6.898 38.2302 6.986C38.1862 7.05933 38.1349 7.19133 38.0762 7.382L37.3722 9.824H36.7562V6.04ZM67.341 20.384V21H61.313V20.384L62.523 20.23C62.7577 20.2007 62.897 20.142 62.941 20.054C62.985 19.9513 63.007 19.6507 63.007 19.152V7.844L58.981 19.24H56.627L52.645 7.91V19.152C52.645 19.6507 52.667 19.9513 52.711 20.054C52.755 20.142 52.8943 20.2007 53.129 20.23L54.339 20.384V21H50.071V20.384L51.281 20.23C51.5157 20.2007 51.655 20.142 51.699 20.054C51.743 19.9513 51.765 19.6507 51.765 19.152V7.888C51.765 7.38933 51.743 7.096 51.699 7.008C51.655 6.90533 51.5157 6.83933 51.281 6.81L50.071 6.656V6.04H54.713L58.739 17.48L62.831 6.04H67.341V6.656L66.131 6.81C65.8963 6.83933 65.757 6.90533 65.713 7.008C65.669 7.096 65.647 7.38933 65.647 7.888V19.152C65.647 19.6507 65.669 19.9513 65.713 20.054C65.757 20.142 65.8963 20.2007 66.131 20.23L67.341 20.384ZM72.4031 20.384V21H68.1571V20.384L69.3671 20.23C69.5284 20.2007 69.6457 20.1713 69.7191 20.142C69.7924 20.098 69.8584 20.0027 69.9171 19.856C69.9757 19.7093 70.0564 19.4747 70.1591 19.152L74.3611 6.04H76.2531L80.4771 19.152C80.5797 19.4747 80.6604 19.7093 80.7191 19.856C80.7777 20.0027 80.8437 20.098 80.9171 20.142C81.0051 20.1713 81.1224 20.2007 81.2691 20.23L82.4791 20.384V21H76.4071V20.384L77.6171 20.23C77.8517 20.2007 77.9764 20.142 77.9911 20.054C78.0204 19.9513 77.9544 19.6507 77.7931 19.152L76.9571 16.424H71.8751L71.0171 19.152C70.8704 19.6507 70.8044 19.9513 70.8191 20.054C70.8337 20.142 70.9584 20.2007 71.1931 20.23L72.4031 20.384ZM72.1391 15.654H76.7151L74.4491 8.35L72.1391 15.654ZM83.2858 6.656V6.04H89.3138V6.656L88.1038 6.81C87.8692 6.83933 87.7298 6.90533 87.6858 7.008C87.6418 7.096 87.6198 7.38933 87.6198 7.888V19.152C87.6198 19.6507 87.6418 19.9513 87.6858 20.054C87.7298 20.142 87.8692 20.2007 88.1038 20.23L89.3138 20.384V21H83.2858V20.384L84.4958 20.23C84.7305 20.2007 84.8698 20.142 84.9138 20.054C84.9578 19.9513 84.9798 19.6507 84.9798 19.152V7.888C84.9798 7.38933 84.9578 7.096 84.9138 7.008C84.8698 6.90533 84.7305 6.83933 84.4958 6.81L83.2858 6.656ZM101.048 17.216H101.664V21H91.2136V20.384L92.4236 20.23C92.6582 20.2007 92.7976 20.142 92.8416 20.054C92.8856 19.9513 92.9076 19.6507 92.9076 19.152V7.888C92.9076 7.38933 92.8856 7.096 92.8416 7.008C92.7976 6.90533 92.6582 6.83933 92.4236 6.81L91.2136 6.656V6.04H97.2416V6.656L96.0316 6.81C95.7969 6.83933 95.6576 6.90533 95.6136 7.008C95.5696 7.096 95.5476 7.38933 95.5476 7.888V20.23H99.1556C99.5076 20.23 99.7569 20.2227 99.9036 20.208C100.05 20.1787 100.146 20.1273 100.19 20.054C100.248 19.966 100.3 19.834 100.344 19.658L101.048 17.216ZM110.134 20.384V21H104.106V20.384L105.316 20.23C105.551 20.2007 105.69 20.142 105.734 20.054C105.778 19.9513 105.8 19.6507 105.8 19.152V14.598L102.302 7.888C102.126 7.55067 101.994 7.316 101.906 7.184C101.818 7.03733 101.73 6.942 101.642 6.898C101.569 6.854 101.459 6.82467 101.312 6.81L100.102 6.656V6.04H106.372V6.656L105.162 6.81C104.942 6.83933 104.832 6.90533 104.832 7.008C104.832 7.096 104.95 7.38933 105.184 7.888L108.022 13.564L110.97 7.888C111.22 7.404 111.337 7.11067 111.322 7.008C111.322 6.90533 111.212 6.83933 110.992 6.81L109.782 6.656V6.04H114.072V6.656L112.862 6.81C112.716 6.82467 112.598 6.854 112.51 6.898C112.437 6.942 112.356 7.03733 112.268 7.184C112.195 7.316 112.07 7.55067 111.894 7.888L108.44 14.554V19.152C108.44 19.6507 108.462 19.9513 108.506 20.054C108.55 20.142 108.69 20.2007 108.924 20.23L110.134 20.384Z" fill="#0A100F"/>
</svg>
